<svg id="svg" version="1.1" xmlns="http://www.w3.org/2000/svg" xmlns:xlink="http://www.w3.org/1999/xlink" width="400" height="95" viewBox="0, 0, 400,95"><g id="svgg"><path id="path0" d="M88.000 31.143 C 87.404 31.300,86.565 31.594,86.134 31.797 C 85.704 32.001,85.273 32.167,85.176 32.167 C 85.079 32.167,85.000 32.242,85.000 32.333 C 85.000 32.425,84.859 32.500,84.687 32.500 C 84.515 32.500,84.281 32.612,84.167 32.750 C 84.053 32.887,83.869 33.000,83.760 33.000 C 83.650 33.000,83.402 33.169,83.208 33.375 C 82.702 33.914,82.372 34.167,82.174 34.167 C 82.078 34.167,81.995 34.223,81.990 34.292 C 81.984 34.360,81.539 34.754,81.001 35.167 C 80.462 35.579,79.976 36.092,79.920 36.307 C 79.861 36.536,79.730 36.663,79.602 36.614 C 79.435 36.550,79.445 36.697,79.647 37.256 C 79.905 37.974,79.822 38.389,79.489 38.055 C 79.291 37.857,78.460 37.968,78.589 38.175 C 78.635 38.250,78.603 38.624,78.517 39.005 C 78.369 39.667,78.378 39.694,78.723 39.601 C 78.921 39.548,79.346 39.500,79.667 39.495 L 80.250 39.486 79.500 38.827 C 79.087 38.464,78.825 38.168,78.917 38.169 C 79.396 38.173,80.879 38.676,81.303 38.979 C 81.906 39.408,82.301 39.566,84.500 40.257 C 89.907 41.956,91.847 43.170,88.771 42.931 C 87.952 42.867,87.318 42.892,87.167 42.993 C 86.984 43.116,87.172 43.162,87.863 43.164 C 88.695 43.166,88.852 43.222,89.168 43.625 C 89.366 43.877,89.653 44.140,89.805 44.209 C 89.958 44.278,89.463 44.309,88.706 44.278 C 87.376 44.223,87.332 44.233,87.432 44.569 C 87.534 44.913,87.531 44.913,87.160 44.554 C 86.766 44.174,86.878 43.868,87.503 43.623 C 87.678 43.555,87.686 43.522,87.531 43.513 C 87.199 43.493,86.667 43.819,86.667 44.042 C 86.667 44.516,88.367 45.982,88.686 45.783 C 88.973 45.603,88.961 45.559,88.488 45.071 L 87.983 44.550 89.504 44.452 C 91.791 44.304,91.671 44.075,91.106 47.500 C 90.978 48.279,90.907 48.975,90.949 49.046 C 90.991 49.117,90.938 49.154,90.831 49.129 C 90.725 49.104,90.504 49.326,90.341 49.623 C 90.177 49.920,89.955 50.271,89.845 50.402 C 89.408 50.929,88.144 53.699,88.233 53.934 C 88.286 54.071,88.259 54.140,88.172 54.087 C 88.085 54.033,87.906 54.198,87.774 54.453 C 87.642 54.709,87.378 55.059,87.188 55.231 C 86.997 55.403,86.875 55.600,86.917 55.668 C 86.959 55.736,86.676 55.798,86.288 55.807 C 85.901 55.815,84.383 55.900,82.917 55.994 C 81.450 56.088,79.462 56.167,78.500 56.169 C 76.010 56.173,75.517 56.554,75.767 58.280 C 75.863 58.942,75.925 59.007,77.012 59.578 C 78.215 60.210,78.667 60.671,78.667 61.265 C 78.667 61.700,78.065 62.500,77.738 62.500 C 77.379 62.500,77.447 62.721,78.022 63.435 C 79.203 64.900,80.544 68.539,79.816 68.301 C 79.688 68.260,78.983 67.546,78.250 66.716 C 77.517 65.886,76.354 64.741,75.667 64.172 C 73.827 62.649,73.492 61.821,74.346 60.906 C 74.737 60.486,74.749 60.276,74.397 59.984 C 74.020 59.671,74.170 57.888,74.639 57.093 C 75.104 56.305,75.028 56.278,72.168 56.196 C 69.862 56.131,69.661 56.152,67.877 56.647 C 66.848 56.933,65.760 57.172,65.461 57.178 C 65.043 57.187,64.990 57.219,65.234 57.314 C 65.583 57.452,63.112 57.575,60.333 57.559 C 58.438 57.547,57.884 57.365,56.102 56.162 C 55.681 55.878,55.249 55.699,55.142 55.765 C 55.032 55.833,54.993 55.813,55.052 55.717 C 55.110 55.624,54.753 55.271,54.261 54.931 C 53.202 54.202,52.970 53.647,53.493 53.091 C 53.682 52.890,53.779 52.668,53.710 52.599 C 53.640 52.529,53.661 52.497,53.755 52.528 C 53.849 52.558,54.468 51.970,55.129 51.219 C 55.791 50.469,56.854 49.388,57.492 48.817 C 58.130 48.246,58.606 47.704,58.550 47.613 C 58.491 47.518,58.534 47.501,58.653 47.575 C 58.948 47.757,59.743 46.988,59.460 46.795 C 59.322 46.701,59.393 46.669,59.667 46.701 C 59.985 46.738,60.072 46.681,60.034 46.458 C 60.001 46.257,60.095 46.167,60.336 46.167 C 60.529 46.167,60.640 46.242,60.583 46.333 C 60.449 46.551,60.555 46.544,61.091 46.299 C 61.441 46.140,61.476 46.079,61.262 46.004 C 61.061 45.934,61.124 45.860,61.510 45.714 C 61.911 45.563,62.011 45.563,61.952 45.717 C 61.898 45.858,62.089 45.900,62.604 45.858 C 63.333 45.800,63.471 45.512,62.782 45.487 C 62.581 45.480,62.511 45.436,62.626 45.389 C 62.962 45.254,62.687 45.000,62.198 44.994 L 61.750 44.989 62.135 44.668 C 62.457 44.399,62.489 44.291,62.332 43.997 C 62.061 43.492,61.432 43.617,61.366 44.189 L 61.315 44.628 57.699 44.637 C 55.710 44.641,53.146 44.587,52.000 44.516 C 50.216 44.405,50.623 44.382,54.833 44.357 C 57.538 44.342,59.919 44.284,60.125 44.228 C 60.561 44.111,60.670 43.333,60.250 43.333 C 60.094 43.333,60.000 43.491,60.000 43.750 L 60.000 44.167 57.360 44.167 C 52.537 44.167,50.134 43.994,50.041 43.640 C 49.936 43.239,49.299 43.225,49.349 43.625 C 49.394 43.985,49.058 44.833,48.871 44.833 C 48.607 44.833,48.333 44.430,48.333 44.040 C 48.333 43.782,48.266 43.689,48.138 43.768 C 48.007 43.849,47.978 43.797,48.050 43.611 C 48.117 43.436,48.073 43.333,47.931 43.333 C 47.684 43.333,47.506 43.832,47.502 44.532 C 47.501 44.779,47.368 45.079,47.206 45.199 C 47.044 45.319,46.816 45.633,46.700 45.897 C 46.583 46.160,46.444 46.332,46.390 46.279 C 46.336 46.225,46.451 45.911,46.646 45.581 C 46.841 45.251,47.000 44.869,47.000 44.733 C 47.000 44.596,46.693 45.069,46.318 45.784 C 45.943 46.499,45.494 47.316,45.320 47.599 C 45.147 47.883,45.053 48.165,45.113 48.224 C 45.173 48.284,45.137 48.333,45.033 48.333 C 44.925 48.333,44.889 48.452,44.950 48.611 C 45.017 48.784,44.990 48.847,44.880 48.779 C 44.783 48.719,44.583 48.852,44.437 49.076 C 44.128 49.548,44.297 49.724,44.910 49.570 C 45.961 49.306,46.634 50.546,46.012 51.600 C 45.820 51.926,45.713 52.273,45.774 52.372 C 45.835 52.471,45.808 52.504,45.715 52.446 C 45.518 52.325,45.281 52.575,44.433 53.798 C 44.097 54.283,43.867 54.754,43.923 54.844 C 43.979 54.934,43.943 54.988,43.842 54.962 C 43.535 54.886,41.827 57.382,42.040 57.596 C 42.092 57.647,42.475 57.535,42.891 57.345 C 44.083 56.802,44.667 56.951,44.667 57.800 C 44.667 59.206,41.765 62.134,39.911 62.600 C 39.028 62.821,39.700 60.535,40.912 59.194 C 41.250 58.819,41.480 58.436,41.422 58.342 C 41.357 58.236,41.427 58.213,41.604 58.281 C 41.825 58.366,41.807 58.307,41.529 58.029 C 40.967 57.467,41.134 56.482,42.235 53.868 C 42.478 53.291,42.626 52.735,42.563 52.633 C 42.494 52.522,42.524 52.495,42.641 52.567 C 42.747 52.633,42.833 52.597,42.833 52.488 C 42.833 52.353,42.621 52.318,42.167 52.379 C 41.800 52.428,41.537 52.409,41.581 52.336 C 41.626 52.264,41.521 52.168,41.348 52.122 C 40.716 51.957,40.425 51.236,40.673 50.451 C 40.794 50.065,40.878 49.688,40.860 49.613 C 40.841 49.537,40.890 49.515,40.969 49.564 C 41.049 49.614,41.357 49.403,41.655 49.096 C 41.952 48.789,42.133 48.504,42.056 48.463 C 41.979 48.422,42.001 48.407,42.105 48.431 C 42.306 48.477,43.333 47.496,43.333 47.258 C 43.333 47.179,43.165 47.258,42.958 47.433 L 42.583 47.750 42.895 47.382 C 43.066 47.179,43.291 47.029,43.395 47.048 C 43.499 47.068,43.563 46.984,43.538 46.863 C 43.512 46.741,43.560 46.684,43.644 46.736 C 43.727 46.787,43.888 46.718,44.002 46.581 C 44.144 46.409,44.150 46.333,44.020 46.333 C 43.918 46.333,43.833 46.221,43.833 46.083 C 43.833 45.946,43.950 45.833,44.093 45.833 C 44.247 45.833,44.305 45.912,44.234 46.026 C 43.928 46.521,44.517 45.916,45.254 44.978 C 45.704 44.404,45.987 43.988,45.882 44.053 C 45.562 44.251,45.437 43.513,45.735 43.183 C 45.881 43.022,46.000 42.803,46.000 42.695 C 46.000 42.588,46.112 42.500,46.250 42.500 C 46.557 42.500,46.557 42.630,46.250 43.167 C 46.119 43.396,46.012 43.658,46.013 43.750 C 46.014 44.032,46.550 42.942,46.628 42.500 C 46.668 42.271,46.738 41.765,46.784 41.375 C 46.892 40.454,47.117 40.471,47.258 41.411 C 47.381 42.233,47.592 42.301,48.052 41.667 C 48.435 41.137,48.327 39.616,47.840 38.703 C 47.659 38.362,47.466 37.729,47.412 37.296 C 47.308 36.460,46.234 34.637,45.666 34.333 C 44.571 33.747,45.230 39.469,46.453 41.162 L 46.750 41.573 46.365 41.306 C 44.966 40.333,44.416 38.535,44.067 33.792 C 43.984 32.663,43.931 32.500,43.652 32.500 C 43.477 32.500,43.333 32.425,43.333 32.333 C 43.333 32.242,43.198 32.167,43.032 32.167 C 42.866 32.167,42.585 32.057,42.407 31.922 C 42.229 31.787,41.855 31.675,41.575 31.672 C 41.295 31.669,40.973 31.573,40.858 31.458 C 40.606 31.206,36.449 31.249,36.361 31.505 C 36.331 31.594,36.093 31.667,35.833 31.667 C 35.574 31.667,35.336 31.723,35.306 31.792 C 35.275 31.860,34.819 32.135,34.292 32.403 C 33.765 32.670,33.333 32.989,33.333 33.111 C 33.333 33.233,33.221 33.333,33.085 33.333 C 32.835 33.333,32.366 33.684,31.468 34.542 C 30.971 35.017,30.594 35.121,30.417 34.833 C 30.002 34.163,25.336 34.907,25.028 35.692 C 24.997 35.770,24.871 35.833,24.748 35.833 C 24.625 35.833,24.377 36.021,24.196 36.250 C 24.016 36.479,23.789 36.667,23.692 36.667 C 23.477 36.667,23.395 37.112,23.081 40.000 C 22.712 43.394,22.795 49.836,23.196 48.910 C 23.291 48.690,23.307 48.785,23.246 49.200 C 23.050 50.527,24.391 56.667,24.877 56.667 C 24.955 56.667,24.981 56.729,24.934 56.805 C 24.765 57.079,25.856 60.058,26.854 62.048 C 30.129 68.579,36.240 75.363,41.750 78.587 C 42.208 78.855,42.883 79.248,43.250 79.460 C 61.883 90.233,85.526 84.475,97.495 66.250 C 97.976 65.517,98.497 64.729,98.652 64.500 C 99.190 63.706,100.012 61.988,99.924 61.845 C 99.875 61.766,99.940 61.661,100.068 61.612 C 100.374 61.495,101.019 59.758,100.897 59.379 C 100.828 59.164,100.845 59.143,100.958 59.301 C 101.405 59.923,103.645 51.766,103.385 50.464 C 103.318 50.132,103.342 49.986,103.452 50.054 C 103.662 50.183,103.810 49.178,103.912 46.925 C 103.961 45.855,103.938 45.430,103.847 45.750 C 103.747 46.107,103.701 45.725,103.689 44.417 C 103.677 43.092,103.720 42.653,103.847 42.833 C 103.972 43.012,103.992 42.703,103.917 41.750 C 103.723 39.286,103.038 34.906,102.873 35.072 C 102.828 35.117,102.529 35.044,102.208 34.910 C 101.560 34.639,99.820 34.583,99.373 34.819 C 98.880 35.079,97.873 35.500,97.743 35.500 C 97.624 35.500,96.439 34.291,95.750 33.468 C 95.107 32.700,93.551 31.667,93.036 31.667 C 92.869 31.667,92.659 31.593,92.569 31.503 C 92.414 31.348,90.954 31.054,89.667 30.919 C 89.346 30.886,88.596 30.986,88.000 31.143 M62.025 41.083 C 62.014 41.817,62.062 42.507,62.133 42.617 C 62.203 42.727,62.236 42.277,62.206 41.617 C 62.124 39.814,62.048 39.588,62.025 41.083 M73.333 40.510 C 73.333 40.607,73.403 40.643,73.488 40.591 C 73.573 40.538,73.692 40.652,73.753 40.843 C 73.814 41.035,73.900 41.155,73.945 41.110 C 74.065 40.991,73.683 40.333,73.494 40.333 C 73.406 40.333,73.333 40.413,73.333 40.510 M94.842 41.559 C 94.962 41.939,95.048 42.303,95.033 42.368 C 94.992 42.540,96.089 42.814,97.323 42.942 C 98.117 43.024,98.304 43.087,98.043 43.184 C 97.848 43.256,97.597 43.488,97.484 43.699 C 97.372 43.910,97.142 44.181,96.974 44.301 C 96.805 44.421,96.667 44.623,96.667 44.750 C 96.667 44.877,96.593 45.026,96.502 45.082 C 96.407 45.141,96.379 45.074,96.436 44.925 C 96.501 44.756,96.441 44.667,96.263 44.667 C 96.112 44.667,95.946 44.554,95.894 44.417 C 95.841 44.279,95.693 44.167,95.566 44.167 C 95.438 44.167,95.333 44.082,95.333 43.980 C 95.333 43.858,95.235 43.872,95.051 44.021 C 94.896 44.147,94.822 44.162,94.886 44.055 C 95.037 43.804,94.568 43.333,94.167 43.333 C 93.997 43.333,93.710 43.146,93.530 42.917 C 93.350 42.688,93.136 42.500,93.055 42.500 C 92.923 42.500,91.500 41.081,91.500 40.949 C 91.500 40.919,92.203 40.889,93.062 40.881 L 94.624 40.868 94.842 41.559 M66.500 42.083 C 66.821 42.207,67.271 42.309,67.500 42.309 C 67.741 42.310,67.566 42.213,67.083 42.079 C 66.033 41.788,65.737 41.790,66.500 42.083 M32.505 43.328 C 31.665 44.200,31.167 44.287,31.167 43.563 C 31.167 43.437,31.054 43.333,30.917 43.333 C 30.779 43.333,30.667 43.216,30.667 43.073 C 30.667 42.931,30.731 42.853,30.809 42.901 C 30.887 42.950,31.093 42.882,31.267 42.750 C 31.636 42.471,32.500 42.419,32.500 42.677 C 32.500 42.774,32.583 42.802,32.684 42.739 C 32.813 42.659,32.802 42.584,32.647 42.488 C 32.481 42.386,32.530 42.311,32.837 42.196 C 33.546 41.930,33.411 42.388,32.505 43.328 M71.567 42.292 L 71.885 42.667 71.317 42.683 L 70.750 42.700 71.417 42.857 C 71.783 42.943,72.261 42.969,72.478 42.915 C 72.930 42.803,72.880 42.689,72.333 42.583 C 72.125 42.543,71.796 42.377,71.602 42.214 L 71.250 41.917 71.567 42.292 M61.667 42.907 C 61.667 43.131,61.728 43.352,61.803 43.398 C 61.878 43.444,61.907 43.261,61.868 42.991 C 61.780 42.396,61.667 42.348,61.667 42.907 M69.473 42.677 C 69.719 42.776,69.965 42.774,70.140 42.672 C 70.351 42.549,70.258 42.511,69.750 42.516 C 69.167 42.520,69.132 42.541,69.473 42.677 M45.333 42.736 C 45.333 42.775,45.379 42.925,45.434 43.070 C 45.507 43.259,45.436 43.333,45.184 43.333 C 44.817 43.333,44.713 43.572,45.003 43.752 C 45.096 43.809,45.122 43.938,45.060 44.037 C 44.999 44.137,45.020 44.174,45.107 44.120 C 45.630 43.797,45.620 44.330,45.093 44.928 C 44.774 45.288,44.511 45.532,44.507 45.470 C 44.503 45.408,44.621 45.237,44.768 45.089 C 44.994 44.863,45.004 44.744,44.831 44.327 C 44.580 43.721,44.167 43.673,44.167 44.250 C 44.167 44.479,44.097 44.667,44.011 44.667 C 43.926 44.667,43.808 44.817,43.750 45.000 C 43.692 45.183,43.574 45.333,43.489 45.333 C 43.403 45.333,43.333 45.183,43.333 45.000 C 43.333 44.625,36.812 44.464,36.583 44.833 C 36.527 44.925,36.391 44.999,36.282 44.997 C 36.163 44.996,36.183 44.930,36.333 44.833 C 36.500 44.726,36.514 44.671,36.375 44.669 C 36.260 44.668,36.167 44.554,36.167 44.417 C 36.167 44.279,36.242 44.167,36.333 44.167 C 36.425 44.167,36.500 44.025,36.500 43.852 C 36.500 42.964,36.815 42.893,40.458 42.964 C 42.325 43.001,43.833 43.098,43.833 43.182 C 43.833 43.265,43.721 43.333,43.583 43.333 C 43.446 43.333,43.333 43.435,43.333 43.560 C 43.333 43.712,43.471 43.761,43.750 43.707 C 43.979 43.664,44.167 43.514,44.167 43.374 C 44.167 43.063,44.646 42.679,45.042 42.672 C 45.202 42.669,45.333 42.698,45.333 42.736 M68.042 42.948 C 68.202 42.990,68.465 42.990,68.625 42.948 C 68.785 42.906,68.654 42.872,68.333 42.872 C 68.012 42.872,67.881 42.906,68.042 42.948 M70.079 43.160 C 70.138 43.255,70.382 43.333,70.621 43.333 C 71.143 43.333,71.083 43.254,70.444 43.100 C 70.135 43.026,70.009 43.046,70.079 43.160 M72.917 43.167 C 72.707 43.257,72.676 43.310,72.833 43.310 C 72.971 43.310,73.233 43.245,73.417 43.167 C 73.627 43.076,73.658 43.023,73.500 43.023 C 73.362 43.023,73.100 43.088,72.917 43.167 M87.972 43.679 C 88.084 43.982,88.333 44.146,88.333 43.917 C 88.333 43.871,88.333 43.721,88.333 43.583 C 88.333 43.446,88.223 43.333,88.089 43.333 C 87.911 43.333,87.879 43.428,87.972 43.679 M26.250 43.833 C 26.555 43.965,26.548 43.977,26.167 43.986 C 25.938 43.991,25.637 43.922,25.500 43.833 C 25.172 43.621,25.757 43.621,26.250 43.833 M25.750 44.240 C 26.300 44.364,26.712 44.479,26.667 44.494 C 26.250 44.637,25.569 44.613,25.469 44.451 C 25.371 44.295,25.268 44.297,25.007 44.458 C 24.607 44.707,23.500 44.737,23.500 44.500 C 23.500 44.408,23.856 44.322,24.292 44.307 L 25.083 44.281 24.250 44.167 C 23.441 44.056,23.436 44.052,24.083 44.033 C 24.450 44.023,25.200 44.116,25.750 44.240 M62.761 44.250 C 62.824 44.433,62.913 44.752,62.958 44.958 C 63.002 45.165,63.105 45.333,63.186 45.333 C 63.403 45.333,63.358 45.151,62.983 44.500 C 62.798 44.179,62.698 44.067,62.761 44.250 M38.292 44.291 C 39.231 44.321,40.769 44.321,41.708 44.291 C 42.648 44.261,41.879 44.237,40.000 44.237 C 38.121 44.237,37.352 44.261,38.292 44.291 M88.337 45.087 C 88.453 45.227,88.506 45.383,88.455 45.434 C 88.306 45.583,87.647 45.166,87.755 44.992 C 87.896 44.764,88.095 44.796,88.337 45.087 M23.119 46.292 C 23.081 46.544,23.050 46.337,23.050 45.833 C 23.050 45.329,23.081 45.123,23.119 45.375 C 23.158 45.627,23.158 46.040,23.119 46.292 M89.477 45.992 C 89.854 46.319,89.856 46.333,89.528 46.333 C 89.340 46.333,89.140 46.258,89.083 46.167 C 89.027 46.075,88.891 46.002,88.782 46.006 C 88.426 46.015,89.360 46.667,89.727 46.664 C 90.533 46.658,90.572 46.376,89.817 46.009 C 89.104 45.661,89.094 45.661,89.477 45.992 M90.500 46.816 C 90.134 46.918,90.120 46.946,90.389 47.049 C 90.790 47.204,90.783 47.206,90.894 46.917 C 90.946 46.779,90.973 46.674,90.953 46.683 C 90.933 46.692,90.729 46.752,90.500 46.816 M91.500 47.250 C 91.500 47.571,91.440 47.833,91.367 47.833 C 91.294 47.833,91.264 47.571,91.302 47.250 C 91.339 46.929,91.399 46.667,91.435 46.667 C 91.471 46.667,91.500 46.929,91.500 47.250 " stroke="none" fill="#b36e3e" fill-rule="evenodd"></path><path id="path1" d="M58.417 1.948 C 57.867 1.987,57.349 2.085,57.267 2.167 C 57.185 2.248,56.904 2.272,56.642 2.220 C 56.321 2.156,56.167 2.193,56.167 2.334 C 56.167 2.480,55.991 2.515,55.583 2.449 C 55.262 2.397,55.000 2.419,55.000 2.498 C 55.000 2.578,54.587 2.694,54.081 2.757 C 53.576 2.821,53.126 2.931,53.081 3.004 C 53.036 3.076,52.850 3.096,52.667 3.048 C 52.466 2.996,52.333 3.043,52.333 3.167 C 52.333 3.290,52.200 3.337,52.000 3.285 C 51.817 3.237,51.667 3.259,51.667 3.334 C 51.667 3.409,51.367 3.521,51.001 3.583 C 50.635 3.645,50.295 3.761,50.246 3.841 C 50.196 3.920,50.046 3.943,49.911 3.892 C 49.777 3.840,49.667 3.889,49.667 4.002 C 49.667 4.123,49.533 4.170,49.333 4.118 C 49.150 4.070,49.000 4.099,49.000 4.182 C 49.000 4.265,48.930 4.333,48.844 4.333 C 48.758 4.333,48.477 4.420,48.219 4.527 C 47.961 4.633,47.694 4.708,47.625 4.694 C 47.556 4.679,47.500 4.730,47.500 4.807 C 47.500 4.884,47.050 5.083,46.500 5.250 C 45.950 5.417,45.500 5.624,45.500 5.711 C 45.500 5.798,45.387 5.826,45.250 5.773 C 45.112 5.720,45.000 5.748,45.000 5.835 C 45.000 5.922,44.813 6.041,44.583 6.098 C 44.354 6.156,44.167 6.274,44.167 6.361 C 44.167 6.448,44.092 6.473,44.000 6.417 C 43.908 6.360,43.833 6.399,43.833 6.504 C 43.833 6.609,43.740 6.663,43.626 6.625 C 43.513 6.588,43.328 6.638,43.216 6.737 C 42.667 7.221,42.528 7.306,42.434 7.212 C 42.379 7.157,42.333 7.207,42.333 7.323 C 42.333 7.447,42.225 7.494,42.075 7.436 C 41.932 7.382,41.855 7.400,41.903 7.478 C 41.990 7.618,41.193 8.084,40.958 8.029 C 40.890 8.013,40.833 8.071,40.833 8.159 C 40.833 8.246,40.555 8.450,40.214 8.612 C 39.873 8.773,39.466 9.021,39.309 9.161 C 38.726 9.684,38.571 9.774,38.371 9.707 C 38.259 9.670,38.167 9.758,38.167 9.903 C 38.167 10.048,38.110 10.167,38.042 10.167 C 37.973 10.167,37.654 10.392,37.333 10.667 C 37.012 10.941,36.682 11.166,36.599 11.166 C 36.516 11.166,36.195 11.463,35.885 11.826 C 35.491 12.285,35.234 12.454,35.035 12.382 C 34.878 12.326,34.808 12.344,34.879 12.422 C 34.949 12.499,34.205 13.349,33.225 14.309 C 32.245 15.269,31.549 16.000,31.680 15.933 C 31.810 15.865,31.598 16.107,31.208 16.469 C 30.819 16.832,30.500 17.206,30.500 17.299 C 30.500 17.393,30.292 17.646,30.037 17.860 C 29.782 18.075,29.576 18.304,29.578 18.370 C 29.581 18.435,29.435 18.660,29.253 18.870 C 29.071 19.079,28.940 19.306,28.961 19.375 C 28.983 19.444,28.934 19.500,28.854 19.500 C 28.773 19.500,28.614 19.725,28.500 20.000 C 28.386 20.275,28.236 20.500,28.165 20.500 C 28.095 20.500,27.913 20.762,27.761 21.083 C 27.609 21.404,27.408 21.667,27.316 21.667 C 27.223 21.667,27.193 21.742,27.250 21.833 C 27.307 21.925,27.274 22.000,27.177 22.000 C 27.079 22.000,27.000 22.115,27.000 22.255 C 27.000 22.396,26.892 22.552,26.761 22.602 C 26.629 22.653,26.562 22.801,26.612 22.930 C 26.662 23.060,26.615 23.167,26.508 23.167 C 26.401 23.167,26.356 23.235,26.408 23.319 C 26.460 23.403,26.445 23.497,26.376 23.527 C 26.307 23.558,25.988 24.089,25.667 24.708 C 25.346 25.327,25.029 25.833,24.964 25.833 C 24.898 25.833,24.887 25.946,24.940 26.083 C 24.992 26.221,24.965 26.333,24.878 26.333 C 24.791 26.333,24.583 26.783,24.417 27.333 C 24.250 27.883,24.046 28.333,23.964 28.333 C 23.881 28.333,23.857 28.403,23.910 28.488 C 23.962 28.574,23.937 28.686,23.853 28.738 C 23.769 28.790,23.610 29.208,23.500 29.666 C 23.390 30.125,23.225 30.500,23.132 30.500 C 23.040 30.500,23.007 30.610,23.058 30.745 C 23.110 30.879,23.085 31.031,23.002 31.082 C 22.920 31.133,22.802 31.510,22.741 31.921 C 22.679 32.331,22.573 32.667,22.504 32.667 C 22.436 32.667,22.415 32.854,22.459 33.083 C 22.508 33.338,22.462 33.500,22.342 33.500 C 22.220 33.500,22.185 33.628,22.250 33.833 C 22.308 34.017,22.284 34.167,22.197 34.167 C 22.110 34.167,21.987 34.579,21.924 35.083 C 21.861 35.587,21.753 36.000,21.684 36.000 C 21.614 36.000,21.591 36.225,21.631 36.500 C 21.677 36.810,21.631 37.000,21.511 37.000 C 21.381 37.000,21.354 37.190,21.428 37.585 C 21.500 37.969,21.462 38.261,21.318 38.435 C 21.020 38.794,20.898 47.026,21.163 48.917 C 21.266 49.650,21.369 50.475,21.393 50.750 C 21.417 51.025,21.497 51.382,21.570 51.544 C 21.644 51.706,21.665 51.987,21.618 52.169 C 21.570 52.351,21.592 52.500,21.666 52.500 C 21.740 52.500,21.853 52.950,21.917 53.500 C 21.981 54.050,22.103 54.544,22.190 54.598 C 22.276 54.651,22.301 54.838,22.246 55.014 C 22.186 55.201,22.223 55.333,22.333 55.333 C 22.447 55.333,22.480 55.467,22.417 55.667 C 22.358 55.850,22.384 56.000,22.474 56.000 C 22.564 56.000,22.688 56.300,22.750 56.667 C 22.812 57.033,22.935 57.333,23.024 57.333 C 23.114 57.333,23.138 57.412,23.079 57.507 C 23.020 57.603,23.059 57.787,23.167 57.917 C 23.274 58.046,23.314 58.230,23.255 58.326 C 23.195 58.422,23.226 58.500,23.323 58.500 C 23.421 58.500,23.500 58.608,23.500 58.739 C 23.500 58.871,23.566 59.152,23.647 59.364 C 23.727 59.576,23.796 59.817,23.799 59.898 C 23.802 59.979,23.875 60.092,23.961 60.148 C 24.047 60.204,24.252 60.663,24.417 61.167 C 24.581 61.671,24.761 62.121,24.816 62.167 C 24.948 62.276,26.520 65.464,26.502 65.585 C 26.494 65.637,26.585 65.786,26.702 65.917 C 27.142 66.406,27.276 66.601,27.675 67.333 C 27.900 67.746,28.177 68.143,28.292 68.217 C 28.406 68.290,28.500 68.461,28.500 68.597 C 28.500 68.733,28.613 68.887,28.750 68.940 C 28.888 68.992,29.000 69.160,29.000 69.311 C 29.000 69.463,29.150 69.680,29.333 69.795 C 29.517 69.909,29.667 70.074,29.667 70.161 C 29.667 70.319,30.032 70.745,31.120 71.854 C 31.517 72.258,31.669 72.533,31.580 72.687 C 31.506 72.813,31.501 72.868,31.568 72.808 C 31.693 72.697,33.948 74.858,34.638 75.750 C 34.851 76.025,34.977 76.156,34.919 76.042 C 34.697 75.603,35.128 75.862,35.677 76.496 C 35.992 76.861,36.311 77.161,36.386 77.163 C 36.509 77.166,36.897 77.463,38.298 78.625 C 38.547 78.831,38.806 79.000,38.875 79.000 C 38.944 79.000,39.001 79.131,39.003 79.292 C 39.005 79.521,39.036 79.535,39.150 79.355 C 39.271 79.163,39.317 79.165,39.439 79.365 C 39.518 79.496,39.827 79.701,40.125 79.822 C 40.423 79.942,40.667 80.097,40.667 80.167 C 40.667 80.236,40.892 80.386,41.167 80.500 C 41.442 80.614,41.667 80.777,41.667 80.863 C 41.667 80.949,41.742 80.973,41.833 80.917 C 41.925 80.860,42.000 80.878,42.000 80.957 C 42.000 81.035,42.262 81.195,42.583 81.311 C 42.904 81.427,43.167 81.596,43.167 81.687 C 43.167 81.778,43.242 81.807,43.333 81.750 C 43.425 81.693,43.500 81.712,43.500 81.791 C 43.500 81.870,43.871 82.067,44.324 82.230 C 44.777 82.393,45.232 82.628,45.336 82.753 C 45.439 82.877,45.743 83.027,46.012 83.086 C 46.280 83.145,46.500 83.267,46.500 83.356 C 46.500 83.446,46.575 83.473,46.667 83.417 C 46.758 83.360,46.833 83.379,46.833 83.459 C 46.833 83.538,47.208 83.700,47.667 83.817 C 48.125 83.935,48.500 84.092,48.500 84.166 C 48.500 84.241,48.650 84.263,48.833 84.215 C 49.017 84.167,49.167 84.206,49.167 84.302 C 49.167 84.398,49.579 84.568,50.083 84.681 C 50.587 84.794,51.000 84.942,51.000 85.011 C 51.000 85.079,51.150 85.096,51.333 85.048 C 51.517 85.000,51.667 85.034,51.667 85.124 C 51.667 85.213,52.229 85.382,52.917 85.500 C 53.604 85.618,54.167 85.776,54.167 85.853 C 54.167 85.929,54.392 85.947,54.667 85.892 C 54.988 85.827,55.167 85.859,55.167 85.982 C 55.167 86.087,55.373 86.156,55.630 86.137 C 55.884 86.117,56.198 86.167,56.327 86.246 C 56.456 86.326,56.792 86.401,57.073 86.412 C 57.354 86.423,58.019 86.448,58.552 86.466 C 59.084 86.485,59.485 86.556,59.442 86.625 C 59.353 86.769,67.374 86.799,67.500 86.655 C 67.593 86.548,70.493 86.170,71.208 86.171 C 71.460 86.172,71.667 86.086,71.667 85.982 C 71.667 85.859,71.845 85.827,72.167 85.892 C 72.442 85.947,72.667 85.929,72.667 85.853 C 72.667 85.776,73.229 85.618,73.917 85.500 C 74.604 85.382,75.167 85.213,75.167 85.124 C 75.167 85.034,75.317 85.000,75.500 85.048 C 75.683 85.096,75.833 85.074,75.833 84.999 C 75.833 84.924,76.121 84.814,76.473 84.754 C 76.825 84.695,77.321 84.539,77.574 84.407 C 77.827 84.276,78.102 84.210,78.184 84.261 C 78.266 84.311,78.333 84.283,78.333 84.198 C 78.333 84.113,78.671 83.949,79.083 83.833 C 79.496 83.718,79.833 83.572,79.833 83.509 C 79.833 83.446,80.246 83.264,80.750 83.105 C 81.254 82.946,81.667 82.760,81.667 82.691 C 81.667 82.622,82.042 82.431,82.500 82.266 C 82.958 82.101,83.333 81.891,83.333 81.799 C 83.333 81.706,83.446 81.674,83.583 81.727 C 83.721 81.780,83.833 81.759,83.833 81.682 C 83.833 81.604,84.058 81.447,84.333 81.333 C 84.608 81.219,84.833 81.056,84.833 80.970 C 84.833 80.884,84.908 80.860,85.000 80.917 C 85.092 80.973,85.167 80.954,85.167 80.874 C 85.167 80.794,85.429 80.626,85.750 80.500 C 86.071 80.374,86.333 80.212,86.333 80.140 C 86.333 80.068,86.577 79.884,86.875 79.731 C 87.173 79.578,87.454 79.398,87.500 79.331 C 87.546 79.264,87.846 79.068,88.168 78.896 C 88.489 78.724,88.913 78.433,89.109 78.250 C 89.305 78.067,89.698 77.729,89.983 77.500 C 90.267 77.271,90.921 76.692,91.436 76.215 C 91.951 75.737,92.424 75.362,92.487 75.381 C 92.607 75.418,94.579 73.508,94.589 73.344 C 94.607 73.069,95.150 72.440,95.625 72.144 C 95.923 71.958,96.167 71.696,96.167 71.562 C 96.167 71.428,96.335 71.144,96.542 70.931 C 96.748 70.719,96.992 70.430,97.083 70.289 C 97.949 68.964,98.408 68.333,98.508 68.333 C 98.573 68.333,98.720 68.107,98.835 67.829 C 98.950 67.552,99.130 67.271,99.235 67.204 C 99.340 67.138,99.567 66.765,99.738 66.375 C 99.910 65.985,100.099 65.667,100.158 65.667 C 100.217 65.667,100.404 65.329,100.574 64.917 C 100.744 64.504,100.941 64.167,101.012 64.167 C 101.082 64.167,101.264 63.792,101.417 63.333 C 101.569 62.875,101.775 62.500,101.875 62.500 C 101.974 62.500,102.006 62.451,101.946 62.390 C 101.886 62.330,101.901 62.199,101.980 62.099 C 102.059 61.999,102.214 61.635,102.325 61.292 C 102.435 60.948,102.603 60.667,102.697 60.667 C 102.792 60.667,102.826 60.554,102.773 60.417 C 102.720 60.279,102.741 60.167,102.820 60.167 C 102.899 60.167,103.012 59.904,103.072 59.583 C 103.133 59.262,103.258 59.000,103.351 59.000 C 103.444 59.000,103.478 58.933,103.427 58.851 C 103.377 58.769,103.443 58.494,103.574 58.241 C 103.705 57.987,103.862 57.492,103.921 57.140 C 103.981 56.788,104.091 56.500,104.166 56.500 C 104.241 56.500,104.263 56.350,104.215 56.167 C 104.167 55.983,104.201 55.833,104.290 55.833 C 104.380 55.833,104.549 55.271,104.667 54.583 C 104.784 53.896,104.946 53.333,105.027 53.333 C 105.107 53.333,105.126 53.145,105.068 52.915 C 105.010 52.684,105.040 52.403,105.133 52.290 C 105.227 52.176,105.307 51.896,105.310 51.667 C 105.314 51.438,105.390 50.837,105.479 50.333 C 105.569 49.829,105.648 48.948,105.654 48.375 C 105.661 47.802,105.723 47.333,105.792 47.333 C 105.860 47.333,105.917 45.908,105.917 44.167 C 105.917 42.425,105.871 41.000,105.815 41.000 C 105.760 41.000,105.662 40.243,105.598 39.317 C 105.535 38.391,105.397 37.498,105.293 37.331 C 105.148 37.099,105.155 36.965,105.320 36.766 C 105.502 36.547,105.491 36.486,105.253 36.395 C 105.041 36.313,104.992 36.163,105.063 35.809 C 105.115 35.548,105.094 35.333,105.015 35.333 C 104.936 35.333,104.820 34.922,104.758 34.419 C 104.695 33.917,104.581 33.466,104.504 33.419 C 104.427 33.372,104.404 33.183,104.452 33.000 C 104.504 32.800,104.457 32.667,104.333 32.667 C 104.210 32.667,104.163 32.534,104.215 32.333 C 104.263 32.150,104.241 32.000,104.166 32.000 C 104.091 32.000,103.981 31.712,103.921 31.360 C 103.862 31.008,103.705 30.513,103.574 30.259 C 103.443 30.006,103.377 29.731,103.427 29.649 C 103.478 29.567,103.450 29.500,103.365 29.500 C 103.280 29.500,103.115 29.162,103.000 28.750 C 102.885 28.337,102.717 28.000,102.627 28.000 C 102.538 28.000,102.506 27.892,102.556 27.761 C 102.607 27.629,102.570 27.496,102.475 27.464 C 102.380 27.432,102.291 27.210,102.276 26.969 C 102.262 26.729,102.202 26.561,102.144 26.597 C 102.039 26.663,101.781 26.031,101.815 25.792 C 101.825 25.723,101.770 25.667,101.693 25.667 C 101.616 25.667,101.454 25.367,101.333 25.000 C 101.212 24.633,101.046 24.333,100.963 24.333 C 100.881 24.333,100.860 24.258,100.917 24.167 C 100.973 24.075,100.954 24.000,100.874 24.000 C 100.734 24.000,100.129 22.887,100.211 22.779 C 100.232 22.750,100.138 22.603,100.000 22.452 C 99.463 21.864,99.357 21.698,99.454 21.601 C 99.510 21.545,99.485 21.500,99.399 21.500 C 99.313 21.500,99.094 21.221,98.913 20.879 C 98.606 20.301,98.407 20.038,97.714 19.292 C 97.565 19.132,97.493 18.952,97.554 18.891 C 97.615 18.830,97.515 18.675,97.332 18.547 C 97.150 18.419,97.000 18.236,97.000 18.140 C 97.000 18.043,96.813 17.817,96.583 17.637 C 96.354 17.457,96.167 17.240,96.167 17.155 C 96.167 17.069,95.753 16.590,95.248 16.089 C 94.743 15.588,94.348 15.119,94.370 15.047 C 94.410 14.921,93.564 14.000,93.409 14.000 C 93.215 14.000,92.686 13.333,92.875 13.327 C 92.990 13.323,92.786 13.172,92.422 12.990 C 92.058 12.808,91.420 12.323,91.005 11.911 C 89.939 10.855,89.645 10.609,89.131 10.347 C 88.882 10.220,88.725 10.041,88.781 9.949 C 88.842 9.851,88.800 9.834,88.681 9.908 C 88.568 9.978,88.352 9.919,88.197 9.775 C 87.385 9.023,87.167 8.840,87.167 8.912 C 87.167 8.989,86.094 8.319,85.725 8.012 C 85.620 7.924,85.248 7.732,84.898 7.586 C 84.548 7.440,84.222 7.265,84.173 7.196 C 84.123 7.128,83.483 6.775,82.750 6.411 C 82.017 6.047,81.379 5.705,81.333 5.649 C 81.287 5.594,80.969 5.457,80.625 5.345 C 80.281 5.233,80.000 5.074,80.000 4.992 C 80.000 4.911,79.887 4.887,79.750 4.940 C 79.612 4.993,79.500 4.945,79.500 4.833 C 79.500 4.722,79.388 4.674,79.250 4.727 C 79.112 4.780,79.000 4.757,79.000 4.676 C 79.000 4.595,78.700 4.479,78.333 4.417 C 77.944 4.351,77.709 4.233,77.770 4.134 C 77.836 4.027,77.743 4.006,77.521 4.077 C 77.302 4.146,77.167 4.117,77.167 4.000 C 77.167 3.887,77.033 3.853,76.833 3.917 C 76.650 3.975,76.500 3.951,76.500 3.863 C 76.500 3.776,76.162 3.654,75.750 3.592 C 75.337 3.530,75.000 3.416,75.000 3.339 C 75.000 3.261,74.850 3.237,74.667 3.285 C 74.467 3.337,74.333 3.290,74.333 3.168 C 74.333 3.056,74.223 3.007,74.089 3.058 C 73.954 3.110,73.803 3.086,73.753 3.004 C 73.702 2.923,73.250 2.805,72.747 2.742 C 72.245 2.680,71.833 2.567,71.833 2.491 C 71.833 2.416,71.571 2.397,71.250 2.449 C 70.843 2.515,70.667 2.480,70.667 2.334 C 70.667 2.189,70.508 2.157,70.143 2.230 C 69.821 2.294,69.522 2.254,69.367 2.126 C 69.116 1.917,60.798 1.782,58.417 1.948 M69.000 4.005 C 70.426 4.236,72.804 4.728,73.667 4.970 C 75.051 5.357,78.224 6.364,78.476 6.495 C 78.626 6.574,79.050 6.766,79.417 6.922 C 81.752 7.914,84.611 9.521,86.672 11.000 C 89.178 12.798,89.942 13.438,91.837 15.332 C 98.332 21.821,102.092 29.200,103.535 38.287 C 104.475 44.211,103.686 53.144,101.835 57.541 C 101.748 57.748,101.414 58.606,101.091 59.448 C 100.125 61.973,99.193 63.720,97.282 66.583 C 85.309 84.532,61.738 90.149,43.250 79.460 C 42.883 79.248,42.208 78.855,41.750 78.587 C 32.600 73.234,25.103 61.976,23.324 50.916 C 19.695 28.364,35.920 6.471,58.083 4.012 C 59.000 3.910,59.975 3.797,60.250 3.761 C 61.264 3.626,67.790 3.808,69.000 4.005 M65.583 9.031 C 60.095 9.851,54.940 11.749,52.765 13.750 C 50.381 15.942,45.851 23.354,44.560 27.173 C 43.183 31.247,44.283 39.858,46.365 41.306 L 46.750 41.573 46.453 41.162 C 45.309 39.578,45.084 38.172,45.332 34.167 C 45.666 28.776,45.967 27.937,49.550 22.437 C 53.224 16.796,52.965 17.070,55.682 15.944 C 60.523 13.937,65.222 13.194,67.822 14.023 C 70.117 14.756,70.608 15.178,70.742 16.532 C 70.941 18.537,70.624 20.539,69.868 22.061 C 69.497 22.806,68.932 24.242,68.612 25.250 C 68.079 26.932,67.245 28.675,66.534 29.593 C 66.378 29.794,65.823 30.512,65.302 31.188 C 64.781 31.864,64.011 32.746,63.590 33.149 C 62.531 34.166,62.727 34.162,64.381 33.133 C 67.876 30.960,69.866 28.666,71.100 25.390 C 71.313 24.822,71.706 23.996,71.974 23.554 C 72.930 21.972,73.227 20.672,73.114 18.565 C 72.940 15.323,71.372 10.500,70.491 10.500 C 70.408 10.500,69.826 10.125,69.198 9.667 C 67.947 8.754,67.714 8.713,65.583 9.031 M64.556 15.252 C 59.956 16.702,55.085 21.896,54.322 26.163 C 54.114 27.332,54.179 34.322,54.404 34.852 C 54.822 35.839,56.657 35.441,56.664 34.363 C 56.668 33.840,58.257 32.195,59.465 31.462 C 59.988 31.145,61.144 30.457,62.033 29.932 C 64.436 28.514,66.947 25.641,68.347 22.709 C 69.941 19.370,70.046 15.723,68.564 15.159 C 67.968 14.933,65.379 14.992,64.556 15.252 M85.750 16.502 C 81.879 17.215,77.439 19.676,74.509 22.734 C 73.826 23.447,73.856 23.457,75.041 22.914 C 75.925 22.510,76.555 22.410,80.417 22.065 C 82.304 21.897,82.951 22.153,83.104 23.129 C 83.758 27.287,82.736 31.878,80.847 33.278 C 80.235 33.731,80.892 33.658,81.864 33.165 C 86.661 30.732,89.917 25.814,89.917 21.000 C 89.917 16.281,89.484 15.814,85.750 16.502 M69.167 31.446 C 68.488 31.536,68.076 31.833,68.630 31.833 C 69.458 31.833,71.307 32.746,73.496 34.236 C 74.775 35.106,76.405 36.132,77.119 36.516 C 77.833 36.900,78.703 37.436,79.053 37.707 C 80.173 38.575,80.072 37.655,78.842 35.793 C 76.709 32.564,73.064 30.927,69.167 31.446 M66.916 34.966 C 62.855 36.370,61.082 40.444,62.883 44.236 C 63.649 45.849,63.650 45.833,62.792 45.837 C 62.402 45.839,61.756 45.989,61.357 46.170 C 60.957 46.352,60.542 46.500,60.434 46.500 C 59.909 46.500,56.733 49.399,54.645 51.784 C 52.756 53.942,52.753 53.918,55.101 55.497 C 57.620 57.190,58.247 57.471,59.776 57.596 C 61.579 57.743,65.618 57.265,67.916 56.632 C 69.651 56.155,69.878 56.131,72.168 56.196 C 75.028 56.278,75.104 56.305,74.639 57.093 C 74.170 57.888,74.020 59.671,74.397 59.984 C 74.749 60.276,74.737 60.486,74.346 60.906 C 73.492 61.821,73.827 62.649,75.667 64.172 C 76.354 64.741,77.517 65.886,78.250 66.716 C 78.983 67.546,79.688 68.260,79.816 68.301 C 80.544 68.539,79.203 64.900,78.022 63.435 C 77.447 62.721,77.379 62.500,77.738 62.500 C 78.065 62.500,78.667 61.700,78.667 61.265 C 78.667 60.671,78.215 60.210,77.012 59.578 C 75.763 58.922,75.467 58.310,75.803 57.083 C 76.014 56.313,76.395 56.228,80.208 56.104 C 86.847 55.889,87.136 55.815,87.951 54.119 C 89.240 51.439,89.742 50.478,89.940 50.314 C 90.065 50.210,90.167 50.053,90.167 49.964 C 90.167 49.874,90.331 49.570,90.533 49.287 C 90.871 48.813,91.140 47.634,91.439 45.317 C 91.563 44.355,91.491 44.323,89.505 44.452 L 87.986 44.550 88.451 45.041 C 88.707 45.310,89.254 45.706,89.667 45.919 C 90.742 46.475,91.016 46.715,90.860 46.962 C 90.433 47.637,86.500 44.651,86.500 43.652 C 86.500 43.035,87.317 42.788,88.885 42.930 C 91.897 43.203,89.791 41.919,84.500 40.257 C 82.300 39.565,81.906 39.408,81.302 38.977 C 80.838 38.647,79.037 38.074,78.899 38.212 C 78.863 38.248,79.152 38.534,79.542 38.847 L 80.250 39.417 79.500 39.526 C 78.594 39.657,76.921 39.957,76.294 40.101 C 75.938 40.182,75.817 40.136,75.744 39.894 C 74.692 36.386,70.146 33.849,66.916 34.966 M72.434 37.999 C 73.741 38.985,75.358 42.180,74.780 42.633 C 73.576 43.574,70.008 43.512,66.012 42.480 C 63.399 41.806,63.441 41.094,66.208 39.120 C 68.815 37.259,70.947 36.875,72.434 37.999 M69.125 39.238 C 67.752 39.728,65.337 41.568,65.850 41.733 C 66.914 42.075,67.472 42.196,69.000 42.412 C 71.473 42.763,71.965 42.755,71.616 42.369 C 71.145 41.849,70.833 40.874,70.833 39.922 L 70.833 39.000 70.292 39.007 C 69.994 39.011,69.469 39.115,69.125 39.238 M73.472 40.589 C 73.421 40.678,73.327 40.970,73.262 41.240 C 73.197 41.509,72.986 41.952,72.793 42.224 L 72.441 42.718 72.880 42.607 C 73.725 42.395,74.167 42.173,74.162 41.962 C 74.155 41.589,73.568 40.422,73.472 40.589 M46.776 41.669 C 46.603 43.326,45.221 45.383,42.071 48.673 C 39.979 50.858,40.089 52.333,42.344 52.333 C 42.938 52.333,42.940 52.214,42.317 53.678 C 41.168 56.378,40.959 57.459,41.483 57.983 C 41.793 58.293,41.787 58.311,41.139 58.941 C 39.848 60.198,38.961 62.838,39.911 62.600 C 41.765 62.134,44.667 59.206,44.667 57.800 C 44.667 56.951,44.083 56.802,42.891 57.345 C 42.043 57.731,41.857 57.677,42.137 57.126 C 42.314 56.776,42.601 56.366,44.589 53.625 C 46.193 51.413,46.358 51.112,46.259 50.583 C 46.127 49.875,45.562 49.451,44.913 49.573 C 44.228 49.701,44.110 49.550,44.480 49.019 C 46.353 46.333,47.522 43.159,47.266 41.458 C 47.103 40.378,46.902 40.464,46.776 41.669 " stroke="none" fill="#090708" fill-rule="evenodd"></path><path id="path2" d="M59.667 3.827 C 56.421 4.222,55.626 4.346,54.333 4.662 C 48.162 6.168,43.147 8.566,38.333 12.311 C 36.594 13.664,33.810 16.328,33.931 16.523 C 33.980 16.602,33.905 16.667,33.766 16.667 C 33.487 16.667,33.116 17.227,33.284 17.395 C 33.342 17.453,33.296 17.500,33.183 17.500 C 32.929 17.500,32.500 17.912,32.500 18.155 C 32.500 18.253,32.433 18.333,32.351 18.333 C 32.270 18.333,32.156 18.521,32.098 18.750 C 32.041 18.979,31.920 19.167,31.830 19.167 C 31.740 19.167,31.667 19.270,31.667 19.396 C 31.667 19.523,31.554 19.719,31.417 19.833 C 31.279 19.947,31.167 20.219,31.167 20.437 C 31.167 20.655,31.099 20.833,31.016 20.833 C 30.933 20.833,30.907 20.995,30.959 21.193 C 31.031 21.468,30.998 21.521,30.818 21.418 C 30.639 21.316,30.628 21.333,30.772 21.489 C 31.035 21.774,31.565 21.425,31.948 20.714 C 32.284 20.089,32.576 20.018,32.833 20.500 C 33.017 20.843,33.500 20.964,33.500 20.667 C 33.500 20.417,43.952 20.440,44.036 20.691 C 44.080 20.824,44.196 20.831,44.425 20.714 C 45.268 20.281,45.818 20.320,46.323 20.849 C 46.844 21.394,47.237 21.260,47.555 20.430 C 47.617 20.268,47.824 20.094,48.015 20.044 C 48.256 19.981,48.299 19.915,48.156 19.827 C 47.888 19.661,48.102 19.106,48.391 19.217 C 48.589 19.293,49.312 18.354,49.186 18.185 C 49.160 18.150,49.204 18.075,49.285 18.019 C 49.577 17.817,50.154 16.877,50.051 16.773 C 49.992 16.714,50.020 16.667,50.113 16.667 C 50.205 16.667,50.799 16.048,51.432 15.292 C 52.776 13.685,52.657 13.802,53.974 12.804 C 54.950 12.065,56.543 11.366,59.042 10.580 C 59.569 10.415,60.000 10.216,60.000 10.140 C 60.000 10.063,60.244 10.000,60.542 10.000 C 60.840 10.000,61.871 9.817,62.833 9.593 C 66.777 8.677,67.784 8.647,68.855 9.417 C 69.302 9.738,69.742 10.000,69.834 10.000 C 69.925 10.000,70.000 10.071,70.000 10.158 C 70.000 10.244,70.204 10.413,70.453 10.533 C 71.244 10.912,72.378 13.596,72.834 16.167 C 72.939 16.762,73.093 17.625,73.175 18.083 C 73.257 18.542,73.372 19.365,73.429 19.912 C 73.512 20.705,73.572 20.858,73.725 20.662 C 73.834 20.522,74.114 20.439,74.375 20.469 C 74.702 20.507,74.833 20.448,74.833 20.261 C 74.833 19.841,75.743 19.926,76.045 20.375 L 76.297 20.750 76.723 20.354 C 76.957 20.136,77.349 19.958,77.592 19.958 C 77.898 19.958,77.966 19.915,77.810 19.819 C 77.491 19.622,78.105 19.179,78.708 19.172 C 78.984 19.169,79.150 19.084,79.125 18.958 C 79.102 18.844,79.196 18.740,79.333 18.728 C 80.043 18.664,80.082 18.643,79.750 18.500 C 79.472 18.380,79.507 18.355,79.964 18.345 C 80.276 18.338,80.550 18.231,80.602 18.094 C 80.653 17.962,80.791 17.891,80.909 17.937 C 81.027 17.982,81.241 17.902,81.383 17.760 C 81.526 17.617,81.836 17.500,82.071 17.500 C 82.307 17.500,82.500 17.435,82.500 17.355 C 82.500 17.275,82.804 17.161,83.175 17.101 C 83.545 17.042,83.813 16.935,83.769 16.863 C 83.724 16.792,83.852 16.732,84.052 16.730 C 84.253 16.729,85.223 16.594,86.208 16.430 C 88.255 16.091,89.498 16.340,89.499 17.088 C 89.500 17.274,89.616 17.591,89.758 17.794 C 89.900 17.996,90.003 18.257,89.988 18.373 C 89.933 18.794,90.028 22.412,90.090 22.250 C 90.125 22.158,90.176 21.633,90.202 21.083 C 90.255 19.981,90.786 19.593,91.000 20.500 C 91.121 21.011,91.461 21.047,91.963 20.603 C 92.293 20.311,92.428 20.290,92.996 20.441 C 93.463 20.566,93.707 20.564,93.846 20.433 C 93.989 20.299,94.062 20.307,94.118 20.459 C 94.161 20.575,94.264 20.626,94.348 20.575 C 94.431 20.523,94.500 20.551,94.500 20.638 C 94.500 20.779,95.484 21.333,95.734 21.333 C 95.788 21.333,95.833 21.221,95.833 21.083 C 95.833 20.946,95.758 20.833,95.667 20.833 C 95.575 20.833,95.500 20.580,95.500 20.270 C 95.500 19.961,95.385 19.612,95.244 19.495 C 95.104 19.379,95.017 19.201,95.052 19.100 C 95.087 18.999,94.936 18.748,94.716 18.542 C 94.496 18.335,94.369 18.167,94.434 18.167 C 94.499 18.167,94.416 18.017,94.250 17.833 C 94.084 17.650,93.847 17.500,93.724 17.500 C 93.601 17.500,93.512 17.444,93.526 17.375 C 93.581 17.116,93.289 16.667,93.066 16.667 C 92.938 16.667,92.852 16.601,92.875 16.521 C 92.931 16.325,90.140 13.602,88.925 12.667 C 87.854 11.843,85.582 10.200,85.073 9.882 C 83.886 9.139,80.731 7.484,79.458 6.936 C 79.115 6.788,78.583 6.556,78.277 6.421 C 77.970 6.287,77.314 6.067,76.818 5.934 C 76.322 5.801,75.467 5.546,74.917 5.369 C 73.151 4.798,72.110 4.529,70.917 4.334 C 70.275 4.228,69.337 4.067,68.833 3.976 C 67.656 3.762,61.083 3.655,59.667 3.827 M61.417 14.000 C 61.360 14.092,61.171 14.167,60.997 14.167 C 60.525 14.167,58.833 14.715,58.833 14.868 C 58.833 14.940,58.615 15.000,58.349 15.000 C 57.782 15.000,54.443 16.387,54.609 16.554 C 54.671 16.616,54.490 16.667,54.206 16.667 C 53.670 16.667,53.094 17.080,53.258 17.347 C 53.310 17.431,53.268 17.500,53.165 17.500 C 52.966 17.500,52.500 17.905,52.500 18.078 C 52.500 18.135,52.353 18.339,52.172 18.532 C 51.992 18.726,51.884 18.947,51.932 19.025 C 51.980 19.103,51.940 19.167,51.843 19.167 C 51.746 19.167,51.667 19.248,51.667 19.348 C 51.667 19.448,51.498 19.671,51.292 19.843 C 51.056 20.039,51.001 20.158,51.144 20.161 C 51.289 20.165,51.340 20.288,51.285 20.500 C 51.237 20.683,51.259 20.871,51.334 20.917 C 51.590 21.075,52.003 20.797,52.103 20.398 C 52.243 19.839,52.833 19.854,52.833 20.417 C 52.833 20.698,52.741 20.833,52.550 20.833 C 52.317 20.833,52.306 20.870,52.487 21.042 C 52.664 21.208,52.724 21.208,52.785 21.042 C 52.827 20.927,52.993 20.833,53.154 20.833 C 53.315 20.833,53.532 20.646,53.636 20.417 C 53.741 20.188,53.904 20.000,54.000 20.000 C 54.096 20.000,54.259 20.188,54.364 20.417 C 54.469 20.648,54.694 20.833,54.870 20.833 C 55.044 20.833,55.140 20.908,55.083 21.000 C 55.027 21.092,55.060 21.167,55.157 21.167 C 55.254 21.167,55.333 21.279,55.333 21.417 C 55.333 21.554,55.450 21.667,55.593 21.667 C 55.736 21.667,55.810 21.597,55.757 21.512 C 55.704 21.426,55.727 21.315,55.808 21.265 C 55.889 21.216,55.919 20.986,55.875 20.756 C 55.831 20.526,55.729 20.378,55.648 20.428 C 55.566 20.479,55.500 20.403,55.500 20.260 C 55.500 19.894,55.626 19.935,56.061 20.440 L 56.439 20.880 56.785 20.440 C 56.976 20.198,57.196 20.000,57.276 20.000 C 57.356 20.000,57.495 19.832,57.585 19.626 C 57.676 19.420,57.900 19.226,58.083 19.194 C 58.487 19.124,59.854 17.835,59.733 17.639 C 59.686 17.563,59.767 17.500,59.913 17.500 C 60.284 17.500,61.016 16.995,60.905 16.815 C 60.855 16.733,60.966 16.667,61.151 16.667 C 61.572 16.667,62.667 16.156,62.667 15.959 C 62.667 15.879,62.736 15.856,62.820 15.908 C 62.904 15.960,63.073 15.906,63.195 15.787 C 63.628 15.366,65.455 15.000,67.122 15.001 L 68.750 15.002 69.153 15.593 C 69.528 16.145,69.558 16.353,69.601 18.717 C 69.627 20.110,69.652 21.321,69.657 21.408 C 69.676 21.728,69.945 21.240,70.157 20.500 C 70.275 20.087,70.457 19.525,70.561 19.250 C 70.877 18.415,70.791 15.747,70.436 15.355 C 70.111 14.995,68.760 14.304,67.822 14.016 C 67.065 13.784,61.559 13.770,61.417 14.000 M33.333 19.843 C 33.333 19.929,33.221 20.000,33.083 20.000 C 32.826 20.000,32.752 19.803,32.940 19.616 C 33.073 19.482,33.333 19.633,33.333 19.843 M75.046 20.833 C 75.075 21.223,75.686 21.295,75.978 20.943 C 76.191 20.686,76.064 20.499,75.681 20.503 C 75.449 20.505,75.448 20.525,75.667 20.667 C 75.880 20.805,75.874 20.829,75.625 20.831 C 75.465 20.832,75.333 20.758,75.333 20.667 C 75.333 20.575,75.263 20.500,75.177 20.500 C 75.091 20.500,75.032 20.650,75.046 20.833 M181.000 24.141 C 181.000 24.219,180.231 24.330,179.292 24.388 C 177.492 24.499,175.640 24.788,175.500 24.979 C 175.454 25.041,174.985 25.225,174.458 25.388 C 173.931 25.551,173.500 25.747,173.500 25.823 C 173.500 25.900,173.233 26.013,172.907 26.074 C 172.581 26.135,172.185 26.312,172.027 26.468 C 171.869 26.623,171.463 26.879,171.125 27.037 C 170.403 27.373,170.355 27.412,168.460 29.205 C 167.658 29.963,167.002 30.673,167.001 30.783 C 167.001 30.893,166.900 31.043,166.779 31.117 C 166.657 31.190,166.416 31.494,166.243 31.792 C 166.070 32.090,165.885 32.333,165.832 32.333 C 165.778 32.333,165.596 32.671,165.426 33.083 C 165.256 33.496,165.062 33.833,164.997 33.833 C 164.931 33.833,164.781 34.190,164.665 34.625 C 164.548 35.060,164.366 35.492,164.259 35.583 C 164.029 35.780,163.500 38.098,163.500 38.908 C 163.500 39.218,163.406 39.503,163.292 39.542 C 163.129 39.596,163.083 41.154,163.083 46.583 C 163.083 52.013,163.129 53.571,163.292 53.625 C 163.406 53.663,163.500 53.932,163.500 54.222 C 163.499 54.832,164.003 57.043,164.171 57.167 C 164.233 57.212,164.414 57.644,164.572 58.125 C 164.731 58.606,164.914 59.000,164.980 59.000 C 165.047 59.000,165.236 59.375,165.400 59.833 C 165.565 60.292,165.763 60.667,165.839 60.667 C 165.915 60.667,166.020 60.798,166.071 60.958 C 166.123 61.119,166.390 61.512,166.665 61.833 C 166.941 62.154,167.166 62.466,167.166 62.527 C 167.167 62.716,168.948 64.500,169.136 64.500 C 169.234 64.500,169.414 64.631,169.535 64.792 C 169.754 65.082,170.192 65.400,170.667 65.615 C 170.804 65.677,171.015 65.864,171.134 66.031 C 171.254 66.197,171.494 66.333,171.668 66.333 C 171.841 66.333,172.043 66.432,172.117 66.554 C 172.190 66.675,172.587 66.906,173.000 67.069 C 173.412 67.231,173.787 67.417,173.833 67.483 C 173.923 67.611,176.132 68.167,176.552 68.167 C 176.691 68.167,176.831 68.242,176.861 68.334 C 177.078 68.985,196.005 69.018,196.494 68.368 C 196.543 68.303,197.105 68.117,197.743 67.954 C 198.381 67.791,198.943 67.603,198.993 67.536 C 199.043 67.470,199.515 67.272,200.042 67.097 C 200.569 66.922,201.000 66.725,201.000 66.659 C 201.000 66.592,201.281 66.406,201.625 66.244 C 201.969 66.083,202.287 65.904,202.333 65.847 C 202.379 65.789,202.642 65.600,202.917 65.426 C 203.192 65.252,203.515 64.973,203.634 64.805 C 203.754 64.637,203.942 64.497,204.051 64.494 C 204.348 64.485,206.493 62.043,206.497 61.708 C 206.499 61.594,206.573 61.500,206.662 61.500 C 206.752 61.500,206.950 61.256,207.102 60.958 C 207.255 60.660,207.426 60.379,207.482 60.333 C 207.676 60.174,208.000 59.503,208.000 59.261 C 208.000 59.126,208.097 58.957,208.217 58.883 C 208.336 58.810,208.576 58.262,208.750 57.667 C 208.925 57.071,209.115 56.546,209.174 56.500 C 210.123 55.762,210.095 36.500,209.145 36.500 C 209.065 36.500,209.000 36.371,209.000 36.214 C 209.000 35.896,208.492 34.464,208.332 34.333 C 208.277 34.287,208.130 33.987,208.006 33.667 C 207.883 33.346,207.700 33.008,207.599 32.917 C 207.499 32.825,207.267 32.450,207.084 32.083 C 206.901 31.717,206.620 31.319,206.459 31.199 C 206.298 31.079,206.167 30.902,206.167 30.806 C 206.167 30.709,205.548 30.042,204.792 29.324 C 202.919 27.546,202.820 27.463,202.117 27.087 C 201.777 26.906,201.500 26.706,201.500 26.642 C 201.500 26.579,201.125 26.402,200.667 26.250 C 200.208 26.098,199.833 25.913,199.833 25.838 C 199.833 25.764,199.346 25.572,198.750 25.410 C 198.154 25.249,197.667 25.063,197.667 24.997 C 197.667 24.801,195.877 24.509,193.958 24.392 C 192.973 24.332,192.167 24.219,192.167 24.141 C 192.167 24.064,189.654 24.000,186.583 24.000 C 183.512 24.000,181.000 24.064,181.000 24.141 M126.042 24.790 C 125.560 24.823,125.167 24.913,125.167 24.990 C 125.167 25.066,124.675 25.222,124.075 25.335 C 123.474 25.448,122.890 25.634,122.777 25.747 C 122.664 25.860,122.274 26.054,121.911 26.177 C 121.547 26.300,121.173 26.480,121.079 26.576 C 120.835 26.825,120.298 27.160,119.958 27.274 C 119.798 27.328,119.667 27.440,119.667 27.524 C 119.667 27.607,119.472 27.749,119.234 27.839 C 118.996 27.930,118.764 28.146,118.718 28.320 C 118.673 28.494,118.494 28.673,118.320 28.718 C 118.146 28.764,117.930 28.996,117.839 29.234 C 117.749 29.472,117.617 29.668,117.546 29.669 C 117.475 29.670,117.268 29.988,117.086 30.377 C 116.904 30.765,116.674 31.136,116.574 31.200 C 116.474 31.264,116.288 31.639,116.161 32.034 C 116.034 32.428,115.880 32.787,115.818 32.833 C 115.025 33.422,115.012 42.125,115.803 42.655 C 115.881 42.707,116.084 43.144,116.255 43.625 C 116.426 44.106,116.625 44.500,116.697 44.500 C 116.770 44.500,116.939 44.762,117.073 45.083 C 117.207 45.404,117.378 45.667,117.454 45.667 C 117.529 45.667,117.727 45.920,117.894 46.230 C 118.061 46.540,118.378 46.890,118.599 47.008 C 118.820 47.126,119.000 47.314,119.000 47.425 C 119.000 47.537,119.131 47.672,119.292 47.726 C 119.707 47.865,120.227 48.214,120.383 48.458 C 120.457 48.573,120.625 48.667,120.758 48.667 C 120.891 48.667,121.140 48.806,121.311 48.977 C 121.482 49.148,122.063 49.425,122.602 49.592 C 123.142 49.759,123.621 49.947,123.667 50.010 C 124.038 50.516,127.089 50.667,136.979 50.667 C 142.491 50.667,147.000 50.723,147.000 50.793 C 147.000 50.862,147.311 51.016,147.691 51.134 C 148.626 51.426,149.833 52.797,149.833 53.567 C 149.833 53.714,149.908 53.833,150.000 53.833 C 150.099 53.833,150.167 54.472,150.167 55.417 C 150.167 56.288,150.099 57.000,150.017 57.000 C 149.934 57.000,149.734 57.369,149.572 57.819 C 149.386 58.338,149.135 58.704,148.889 58.816 C 148.675 58.913,148.500 59.062,148.500 59.147 C 148.500 59.795,147.528 59.833,131.220 59.833 L 115.500 59.833 115.500 64.006 L 115.500 68.179 131.875 68.126 C 148.260 68.072,150.167 68.005,150.167 67.481 C 150.167 67.417,150.579 67.235,151.083 67.076 C 151.587 66.917,152.000 66.734,152.000 66.669 C 152.000 66.604,152.319 66.410,152.708 66.237 C 153.098 66.065,153.515 65.791,153.634 65.629 C 153.754 65.466,153.929 65.333,154.023 65.333 C 154.284 65.333,155.684 63.815,156.278 62.886 C 156.444 62.628,156.658 62.333,156.756 62.230 C 156.853 62.128,157.039 61.715,157.169 61.314 C 157.300 60.912,157.497 60.490,157.608 60.375 C 157.718 60.261,157.900 59.605,158.011 58.917 C 158.122 58.229,158.277 57.667,158.356 57.667 C 158.537 57.667,158.548 53.048,158.368 52.972 C 158.295 52.942,158.109 52.321,157.953 51.594 C 157.797 50.867,157.603 50.229,157.522 50.177 C 157.441 50.126,157.321 49.832,157.254 49.525 C 157.187 49.217,157.006 48.839,156.851 48.684 C 156.696 48.529,156.471 48.165,156.351 47.876 C 156.231 47.586,155.953 47.232,155.733 47.088 C 155.513 46.944,155.333 46.733,155.333 46.619 C 155.333 46.506,155.096 46.226,154.805 45.998 C 154.515 45.770,154.114 45.433,153.914 45.250 C 153.715 45.067,153.296 44.771,152.984 44.593 C 152.672 44.414,152.333 44.186,152.230 44.085 C 152.128 43.984,151.715 43.794,151.314 43.664 C 150.912 43.534,150.495 43.342,150.388 43.238 C 150.280 43.134,149.624 42.948,148.929 42.825 C 148.235 42.701,147.667 42.540,147.667 42.467 C 147.667 42.393,143.060 42.333,137.429 42.333 C 127.075 42.333,125.588 42.257,125.381 41.717 C 125.335 41.598,125.206 41.500,125.093 41.500 C 124.568 41.500,123.500 39.754,123.500 38.896 C 123.500 38.678,123.425 38.500,123.333 38.500 C 123.242 38.500,123.167 38.162,123.167 37.750 C 123.167 37.337,123.242 37.000,123.333 37.000 C 123.425 37.000,123.500 36.814,123.500 36.587 C 123.500 35.324,124.931 33.500,125.922 33.500 C 126.041 33.500,126.170 33.406,126.208 33.292 C 126.263 33.128,129.281 33.074,140.389 33.038 L 154.500 32.993 154.500 28.830 L 154.500 24.667 140.708 24.697 C 133.123 24.714,126.523 24.756,126.042 24.790 M219.515 24.782 C 219.294 24.827,219.007 24.969,218.878 25.098 C 218.749 25.228,218.533 25.333,218.399 25.333 C 218.130 25.333,217.000 26.396,217.000 26.649 C 217.000 26.737,216.869 26.941,216.708 27.101 C 216.434 27.375,216.414 28.621,216.371 47.780 L 216.326 68.167 220.413 68.167 L 224.500 68.167 224.500 50.576 L 224.500 32.985 232.445 33.034 C 238.617 33.072,240.405 33.130,240.458 33.292 C 240.497 33.406,240.748 33.500,241.016 33.500 C 241.576 33.500,243.541 34.008,243.667 34.185 C 243.713 34.250,244.088 34.436,244.500 34.598 C 244.913 34.761,245.287 34.944,245.333 35.006 C 245.379 35.067,245.717 35.256,246.083 35.426 C 246.450 35.596,246.848 35.869,246.968 36.034 C 247.088 36.199,247.259 36.333,247.348 36.333 C 247.595 36.333,248.550 37.353,248.833 37.918 C 248.971 38.192,249.215 38.515,249.375 38.634 C 249.535 38.754,249.667 38.955,249.667 39.081 C 249.667 39.207,249.766 39.409,249.887 39.530 C 250.008 39.651,250.248 40.125,250.420 40.583 C 250.592 41.042,250.786 41.454,250.851 41.501 C 251.301 41.819,251.384 43.811,251.451 55.792 L 251.519 68.167 255.593 68.167 L 259.667 68.167 259.667 55.800 C 259.667 43.850,259.554 40.667,259.133 40.667 C 259.060 40.667,259.000 40.503,259.000 40.303 C 259.000 39.852,258.482 37.947,258.328 37.833 C 258.266 37.787,258.086 37.356,257.928 36.875 C 257.769 36.394,257.586 36.000,257.520 36.000 C 257.454 36.000,257.306 35.738,257.190 35.418 C 257.074 35.099,256.891 34.741,256.782 34.624 C 256.673 34.506,256.442 34.158,256.269 33.849 C 255.945 33.271,255.691 32.944,255.042 32.268 C 254.835 32.054,254.667 31.818,254.667 31.744 C 254.667 31.598,253.474 30.454,252.762 29.917 C 252.519 29.733,252.128 29.417,251.892 29.214 C 251.657 29.012,251.248 28.750,250.982 28.632 C 250.717 28.515,250.500 28.363,250.500 28.295 C 250.500 28.227,250.237 28.061,249.917 27.927 C 249.596 27.793,249.333 27.605,249.333 27.509 C 249.333 27.412,249.188 27.333,249.010 27.333 C 248.832 27.333,248.640 27.258,248.583 27.167 C 248.527 27.075,248.338 27.000,248.165 27.000 C 247.992 27.000,247.790 26.900,247.717 26.777 C 247.592 26.569,246.684 26.253,245.625 26.050 C 245.373 26.002,245.167 25.903,245.167 25.832 C 245.167 25.680,242.503 25.166,241.722 25.166 C 241.432 25.167,241.163 25.073,241.125 24.958 C 241.056 24.750,220.502 24.583,219.515 24.782 M268.611 24.778 C 268.550 24.839,268.500 34.626,268.500 46.528 L 268.500 68.167 272.500 68.167 L 276.500 68.167 276.500 46.750 C 276.500 32.583,276.556 25.333,276.667 25.333 C 276.936 25.333,276.858 24.878,276.570 24.768 C 276.209 24.630,268.750 24.639,268.611 24.778 M282.075 24.878 C 282.030 24.995,282.014 26.851,282.039 29.003 L 282.083 32.917 290.708 32.960 L 299.333 33.003 299.333 50.585 L 299.333 68.167 303.333 68.167 L 307.333 68.167 307.333 50.583 L 307.333 33.000 315.917 33.000 L 324.500 33.000 324.500 28.833 L 324.500 24.667 303.328 24.667 C 286.360 24.667,282.140 24.709,282.075 24.878 M327.947 24.775 C 327.586 25.136,327.927 43.406,328.300 43.653 C 328.381 43.706,328.582 44.256,328.748 44.875 C 328.914 45.494,329.103 46.000,329.169 46.000 C 329.234 46.000,329.423 46.356,329.588 46.792 C 329.754 47.227,330.026 47.681,330.194 47.801 C 330.362 47.921,330.500 48.119,330.500 48.240 C 330.500 48.362,330.682 48.581,330.904 48.726 C 331.126 48.872,331.356 49.143,331.415 49.329 C 331.474 49.515,331.630 49.667,331.761 49.667 C 331.893 49.667,332.000 49.747,332.000 49.845 C 332.000 50.073,332.423 50.500,332.649 50.500 C 332.744 50.500,332.893 50.634,332.980 50.797 C 333.068 50.960,333.408 51.199,333.736 51.328 C 334.065 51.457,334.333 51.621,334.333 51.693 C 334.333 51.766,334.577 51.950,334.875 52.102 C 335.173 52.255,335.454 52.429,335.500 52.490 C 335.600 52.622,337.281 53.167,337.589 53.167 C 337.708 53.167,337.832 53.247,337.865 53.346 C 337.974 53.671,340.541 53.993,343.042 53.997 L 345.500 54.000 345.500 61.083 L 345.500 68.167 349.583 68.167 L 353.667 68.167 353.667 61.107 L 353.667 54.048 356.542 53.953 C 359.204 53.865,361.301 53.602,361.500 53.331 C 361.546 53.269,362.015 53.084,362.542 52.920 C 363.069 52.755,363.500 52.562,363.500 52.490 C 363.500 52.418,363.762 52.273,364.082 52.167 C 364.402 52.061,364.721 51.887,364.790 51.779 C 364.860 51.671,365.142 51.470,365.417 51.333 C 365.892 51.095,366.232 50.812,367.250 49.807 C 368.364 48.707,368.836 48.131,368.929 47.759 C 368.985 47.538,369.128 47.320,369.248 47.274 C 369.368 47.228,369.555 46.922,369.663 46.595 C 369.771 46.268,369.916 46.000,369.986 46.000 C 370.055 46.000,370.251 45.381,370.421 44.625 C 370.592 43.869,370.810 43.197,370.907 43.131 C 371.026 43.051,371.098 40.051,371.129 33.837 L 371.175 24.661 367.129 24.705 L 363.083 24.750 362.988 33.167 C 362.899 41.017,362.829 42.333,362.500 42.333 C 362.430 42.333,362.328 42.465,362.274 42.625 C 362.026 43.364,361.291 44.135,360.407 44.583 C 360.046 44.767,359.704 44.980,359.647 45.058 C 358.961 45.996,339.333 45.940,339.333 44.999 C 339.333 44.928,339.152 44.824,338.931 44.768 C 338.344 44.621,337.250 43.503,336.990 42.786 C 336.867 42.445,336.715 42.167,336.653 42.167 C 336.345 42.167,336.264 40.613,336.177 33.000 L 336.083 24.750 332.072 24.705 C 329.866 24.681,328.010 24.712,327.947 24.775 M193.167 32.484 C 193.167 32.567,193.560 32.686,194.042 32.748 C 194.980 32.869,196.197 33.176,196.333 33.325 C 196.379 33.376,196.717 33.566,197.083 33.749 C 197.450 33.932,197.848 34.213,197.968 34.374 C 198.088 34.535,198.260 34.667,198.351 34.667 C 198.579 34.667,199.667 35.741,199.667 35.967 C 199.667 36.068,199.760 36.210,199.875 36.283 C 200.134 36.449,200.667 37.445,200.667 37.764 C 200.667 37.894,200.732 38.000,200.811 38.000 C 201.012 38.000,201.500 39.807,201.500 40.553 C 201.500 40.890,201.575 41.167,201.667 41.167 C 201.774 41.167,201.833 43.083,201.833 46.583 C 201.833 50.083,201.774 52.000,201.667 52.000 C 201.575 52.000,201.500 52.191,201.500 52.424 C 201.500 53.082,200.965 55.058,200.720 55.304 C 200.599 55.425,200.500 55.612,200.500 55.720 C 200.500 55.828,200.312 56.135,200.083 56.401 C 199.854 56.667,199.667 56.933,199.667 56.992 C 199.667 57.143,198.415 58.429,198.142 58.558 C 197.826 58.708,197.300 59.051,197.071 59.258 C 196.964 59.354,196.549 59.538,196.147 59.667 C 195.745 59.797,195.374 59.964,195.321 60.039 C 194.742 60.863,178.371 60.870,177.862 60.047 C 177.800 59.946,177.475 59.812,177.139 59.749 C 176.803 59.686,176.391 59.511,176.223 59.359 C 176.054 59.207,175.692 58.971,175.417 58.833 C 174.739 58.494,173.325 57.021,172.917 56.230 C 172.734 55.874,172.504 55.498,172.407 55.394 C 172.309 55.290,172.126 54.765,171.999 54.228 C 171.873 53.690,171.690 53.196,171.593 53.131 C 171.319 52.946,171.350 39.800,171.625 39.708 C 171.740 39.670,171.833 39.524,171.833 39.383 C 171.833 38.922,172.411 37.435,172.708 37.131 C 172.869 36.967,173.000 36.752,173.000 36.652 C 173.000 36.552,173.506 35.986,174.125 35.392 C 175.622 33.958,175.660 33.928,176.333 33.661 C 176.654 33.535,177.010 33.339,177.125 33.228 C 177.239 33.116,177.895 32.934,178.583 32.823 C 179.271 32.712,179.833 32.556,179.833 32.477 C 179.833 32.398,182.833 32.333,186.500 32.333 C 190.373 32.333,193.167 32.397,193.167 32.484 " stroke="none" fill="#1c5ccb" fill-rule="evenodd"></path><path id="path3" d="M61.500 1.667 C 61.825 1.877,64.841 1.877,65.167 1.667 C 65.335 1.558,64.739 1.505,63.333 1.505 C 61.928 1.505,61.331 1.558,61.500 1.667 M82.906 6.492 C 83.176 6.669,83.466 6.771,83.552 6.718 C 83.638 6.664,83.466 6.519,83.169 6.394 C 82.419 6.079,82.330 6.112,82.906 6.492 M42.077 7.341 C 41.807 7.639,41.804 7.668,42.051 7.573 C 42.206 7.513,42.333 7.393,42.333 7.306 C 42.333 7.218,42.408 7.193,42.500 7.250 C 42.592 7.307,42.667 7.274,42.667 7.177 C 42.667 6.899,42.413 6.969,42.077 7.341 M88.167 9.744 C 88.167 9.787,88.315 9.901,88.496 9.998 C 88.765 10.142,88.808 10.128,88.728 9.921 C 88.642 9.696,88.167 9.546,88.167 9.744 M35.407 12.070 C 35.229 12.200,35.128 12.350,35.182 12.404 C 35.236 12.458,35.416 12.352,35.582 12.168 C 35.936 11.776,35.864 11.736,35.407 12.070 M91.333 12.266 C 91.333 12.291,91.574 12.482,91.869 12.692 L 92.404 13.073 92.083 12.648 C 91.827 12.308,91.333 12.057,91.333 12.266 M94.643 15.467 C 95.090 16.095,95.333 16.268,95.333 15.958 C 95.333 15.832,95.094 15.553,94.802 15.336 L 94.270 14.943 94.643 15.467 M31.583 15.833 C 31.640 15.925,31.615 16.000,31.528 16.000 C 31.440 16.000,31.320 16.127,31.261 16.282 C 31.165 16.532,31.191 16.529,31.489 16.260 C 31.780 15.997,31.821 15.667,31.564 15.667 C 31.518 15.667,31.527 15.742,31.583 15.833 M73.189 19.522 C 73.165 20.897,72.691 22.440,71.917 23.667 C 71.687 24.030,71.322 24.799,71.105 25.375 C 69.888 28.607,67.862 30.975,64.565 33.018 C 63.883 33.440,63.271 33.845,63.205 33.917 C 62.979 34.162,65.412 32.772,65.954 32.346 C 66.345 32.038,66.650 31.938,67.079 31.975 C 67.453 32.007,67.667 31.953,67.667 31.826 C 67.667 31.689,67.732 31.678,67.875 31.791 C 67.990 31.882,68.383 32.009,68.750 32.073 C 69.117 32.137,69.604 32.222,69.833 32.263 C 70.118 32.313,70.065 32.260,69.667 32.098 C 69.346 31.966,68.900 31.853,68.675 31.846 C 68.399 31.837,68.321 31.779,68.436 31.664 C 68.757 31.343,71.660 31.271,72.744 31.558 C 73.291 31.702,73.778 31.757,73.827 31.679 C 73.946 31.490,75.550 31.565,75.613 31.762 C 75.701 32.044,75.379 32.381,75.155 32.243 C 74.992 32.142,75.016 32.082,75.253 31.999 C 75.437 31.934,75.242 31.889,74.782 31.889 L 73.997 31.889 74.874 32.321 C 75.356 32.558,75.956 32.892,76.208 33.062 C 76.460 33.232,76.667 33.324,76.667 33.267 C 76.667 33.209,76.452 33.031,76.190 32.872 C 75.652 32.545,75.721 31.821,76.286 31.846 C 76.461 31.854,76.497 31.894,76.375 31.944 C 76.133 32.041,76.093 32.333,76.322 32.333 C 76.408 32.333,76.528 32.174,76.590 31.978 C 76.698 31.638,76.766 31.629,78.226 31.744 C 80.479 31.923,80.451 31.918,80.740 32.158 C 80.967 32.347,80.993 32.342,80.911 32.128 C 80.792 31.819,81.294 31.283,81.594 31.398 C 81.714 31.444,81.848 31.392,81.893 31.282 C 81.948 31.146,81.978 31.155,81.987 31.311 C 81.994 31.436,81.731 31.905,81.402 32.353 C 81.074 32.800,80.869 33.167,80.947 33.167 C 81.184 33.167,82.216 31.488,82.741 30.250 C 83.217 29.125,83.235 28.992,83.233 26.500 C 83.231 22.077,83.050 21.789,80.454 22.065 C 79.884 22.125,78.632 22.245,77.673 22.331 C 76.296 22.454,75.728 22.587,74.965 22.965 C 73.403 23.739,73.968 23.001,76.375 21.121 C 77.085 20.567,77.667 20.050,77.667 19.973 C 77.667 19.896,77.749 19.833,77.849 19.833 C 77.949 19.833,78.221 19.683,78.455 19.500 C 78.845 19.193,78.851 19.167,78.540 19.167 C 78.354 19.167,78.025 19.353,77.809 19.580 C 77.593 19.808,77.347 19.996,77.261 19.997 C 77.175 19.999,76.923 20.169,76.701 20.375 L 76.297 20.750 76.045 20.375 C 75.743 19.926,74.833 19.841,74.833 20.261 C 74.833 20.448,74.702 20.507,74.375 20.469 C 74.114 20.439,73.834 20.522,73.725 20.662 C 73.572 20.858,73.511 20.706,73.424 19.912 C 73.242 18.248,73.213 18.200,73.189 19.522 M31.069 19.800 C 28.291 23.352,25.811 28.201,24.575 32.498 C 24.333 33.337,24.171 34.060,24.214 34.103 C 24.257 34.146,24.426 33.672,24.590 33.049 C 24.754 32.426,24.950 31.835,25.026 31.735 C 25.102 31.635,25.108 31.491,25.040 31.415 C 24.972 31.339,25.095 31.397,25.312 31.543 C 25.584 31.727,25.822 31.766,26.076 31.670 C 26.282 31.591,26.548 31.595,26.681 31.679 C 27.009 31.887,30.000 31.876,30.000 31.667 C 30.000 31.421,30.321 31.464,30.606 31.748 C 30.866 32.009,32.167 32.057,32.167 31.806 C 32.167 31.729,32.429 31.667,32.750 31.667 C 33.071 31.667,33.333 31.586,33.333 31.488 C 33.333 31.389,33.465 31.336,33.625 31.369 C 33.785 31.402,34.000 31.320,34.102 31.186 C 34.260 30.979,34.343 30.996,34.675 31.305 C 35.126 31.725,35.590 31.774,35.727 31.417 C 35.807 31.208,36.283 31.167,38.583 31.167 C 40.883 31.167,41.360 31.208,41.440 31.417 C 41.567 31.748,42.328 31.735,42.814 31.395 C 43.140 31.166,43.226 31.160,43.347 31.353 C 43.450 31.517,43.396 31.599,43.162 31.637 C 42.646 31.720,42.778 32.000,43.333 32.000 C 43.689 32.000,43.841 32.084,43.859 32.292 C 43.872 32.452,43.940 31.683,44.009 30.583 C 44.196 27.586,44.914 25.538,47.067 21.860 C 47.675 20.821,48.083 20.000,47.973 20.037 C 47.864 20.073,47.693 20.242,47.595 20.412 C 47.069 21.321,46.847 21.398,46.323 20.849 C 45.818 20.320,45.268 20.281,44.425 20.714 C 44.196 20.831,44.080 20.824,44.036 20.691 C 43.952 20.440,33.500 20.417,33.500 20.667 C 33.500 20.964,33.017 20.843,32.833 20.500 C 32.576 20.018,32.284 20.089,31.948 20.714 C 31.565 21.425,31.035 21.774,30.772 21.489 C 30.628 21.333,30.639 21.316,30.818 21.418 C 30.998 21.521,31.031 21.468,30.959 21.193 C 30.907 20.995,30.933 20.833,31.016 20.833 C 31.099 20.833,31.167 20.655,31.167 20.437 C 31.167 20.219,31.279 19.947,31.417 19.833 C 31.554 19.719,31.667 19.523,31.667 19.396 C 31.667 19.270,31.734 19.167,31.816 19.167 C 31.963 19.167,32.221 18.666,32.123 18.568 C 32.095 18.540,31.621 19.094,31.069 19.800 M95.000 19.109 C 95.000 19.210,95.112 19.386,95.250 19.500 C 95.388 19.614,95.500 19.961,95.500 20.270 C 95.500 20.580,95.575 20.833,95.667 20.833 C 95.758 20.833,95.833 20.946,95.833 21.083 C 95.833 21.221,95.788 21.333,95.734 21.333 C 95.484 21.333,94.500 20.779,94.500 20.638 C 94.500 20.551,94.431 20.523,94.348 20.575 C 94.264 20.626,94.161 20.575,94.118 20.459 C 94.062 20.307,93.989 20.299,93.846 20.433 C 93.707 20.564,93.463 20.566,92.996 20.441 C 92.428 20.290,92.293 20.311,91.963 20.603 C 91.461 21.047,91.121 21.011,91.000 20.500 C 90.806 19.678,90.257 19.967,90.208 20.917 C 90.000 25.012,87.076 29.848,83.327 32.297 C 82.806 32.638,82.238 33.009,82.065 33.122 C 81.811 33.288,81.847 33.290,82.250 33.132 C 82.525 33.024,82.873 32.833,83.024 32.708 C 83.233 32.534,83.315 32.528,83.367 32.683 C 83.414 32.826,83.540 32.796,83.792 32.580 C 83.989 32.412,84.112 32.212,84.065 32.137 C 84.018 32.062,84.212 32.000,84.496 32.000 C 84.780 32.000,85.197 31.879,85.423 31.731 C 85.648 31.583,85.833 31.519,85.833 31.590 C 85.833 31.661,85.991 31.576,86.183 31.402 C 86.377 31.226,86.710 31.109,86.933 31.138 C 87.153 31.167,87.333 31.110,87.333 31.012 C 87.333 30.893,88.121 30.833,89.677 30.833 C 91.196 30.833,91.983 30.892,91.917 31.000 C 91.854 31.101,92.087 31.167,92.506 31.167 C 92.887 31.167,93.435 31.290,93.724 31.440 C 94.943 32.075,95.167 32.136,95.167 31.833 C 95.167 31.742,95.099 31.685,95.017 31.708 C 94.934 31.731,94.840 31.676,94.808 31.586 C 94.776 31.495,94.872 31.398,95.020 31.369 C 95.179 31.339,95.327 31.457,95.380 31.659 C 95.429 31.846,95.401 32.000,95.318 32.000 C 95.235 32.000,95.167 32.112,95.167 32.250 C 95.167 32.389,95.315 32.500,95.500 32.500 C 95.683 32.500,95.815 32.410,95.792 32.301 C 95.730 32.006,96.535 31.875,98.542 31.853 C 99.852 31.839,100.334 31.777,100.336 31.625 C 100.338 31.469,100.373 31.472,100.479 31.638 C 100.742 32.053,101.589 31.811,101.546 31.333 C 101.525 31.104,101.702 31.465,101.938 32.135 C 102.592 33.989,102.587 33.454,101.933 31.482 C 100.754 27.931,98.986 24.384,96.915 21.411 C 95.585 19.503,95.000 18.799,95.000 19.109 M48.058 19.424 C 47.923 19.776,48.148 19.965,48.340 19.662 C 48.544 19.339,48.540 19.167,48.328 19.167 C 48.234 19.167,48.112 19.282,48.058 19.424 M57.700 19.367 C 57.590 19.477,57.500 19.664,57.500 19.783 C 57.500 19.902,57.417 20.000,57.316 20.000 C 57.214 20.000,56.976 20.198,56.785 20.440 L 56.439 20.880 56.061 20.440 C 55.626 19.935,55.500 19.894,55.500 20.260 C 55.500 20.403,55.566 20.479,55.648 20.428 C 55.729 20.378,55.831 20.526,55.875 20.756 C 55.919 20.986,55.889 21.216,55.808 21.265 C 55.727 21.315,55.704 21.426,55.757 21.512 C 55.810 21.597,55.736 21.667,55.593 21.667 C 55.450 21.667,55.333 21.554,55.333 21.417 C 55.333 21.279,55.254 21.167,55.157 21.167 C 55.060 21.167,55.027 21.092,55.083 21.000 C 55.140 20.908,55.044 20.833,54.870 20.833 C 54.694 20.833,54.469 20.648,54.364 20.417 C 54.259 20.188,54.096 20.000,54.000 20.000 C 53.904 20.000,53.741 20.188,53.636 20.417 C 53.532 20.646,53.315 20.833,53.154 20.833 C 52.993 20.833,52.827 20.927,52.785 21.042 C 52.724 21.208,52.664 21.208,52.487 21.042 C 52.306 20.870,52.317 20.833,52.550 20.833 C 52.741 20.833,52.833 20.698,52.833 20.417 C 52.833 19.854,52.243 19.839,52.103 20.398 C 52.003 20.797,51.590 21.075,51.334 20.917 C 51.259 20.871,51.237 20.683,51.285 20.500 C 51.497 19.691,50.928 20.331,49.526 22.479 C 46.419 27.238,45.436 29.551,45.527 31.886 C 45.553 32.547,45.560 32.535,45.667 31.667 C 45.728 31.162,45.791 30.956,45.806 31.208 C 45.823 31.493,45.928 31.667,46.083 31.667 C 46.221 31.667,46.334 31.760,46.336 31.875 C 46.337 32.004,46.385 32.020,46.461 31.917 C 46.536 31.815,47.929 31.750,50.042 31.750 C 52.225 31.750,53.506 31.811,53.517 31.917 C 53.526 32.008,53.589 31.896,53.657 31.667 C 53.762 31.310,53.805 31.382,53.954 32.167 C 54.102 32.953,54.130 32.639,54.147 29.967 C 54.177 25.194,55.011 22.899,57.883 19.675 C 58.311 19.194,58.148 18.919,57.700 19.367 M70.422 19.542 C 69.776 21.955,69.593 22.103,69.654 20.167 C 69.687 19.121,69.424 19.278,69.243 20.413 C 68.819 23.065,65.049 28.157,62.312 29.773 C 61.353 30.339,61.046 30.598,61.202 30.710 C 61.352 30.818,61.321 30.834,61.100 30.761 C 60.350 30.516,56.645 33.465,56.680 34.279 C 56.690 34.513,56.714 34.525,56.785 34.333 C 56.941 33.914,57.979 32.704,58.506 32.329 C 58.934 32.024,59.243 31.974,60.751 31.968 C 62.124 31.962,62.500 31.911,62.500 31.730 C 62.500 31.604,62.575 31.500,62.667 31.500 C 62.758 31.500,62.833 31.581,62.833 31.681 C 62.833 31.780,62.927 31.827,63.042 31.785 C 63.156 31.743,63.231 31.624,63.208 31.521 C 63.185 31.418,63.284 31.333,63.427 31.333 C 63.569 31.333,63.637 31.413,63.576 31.511 C 63.396 31.804,64.036 32.178,64.318 31.945 C 64.520 31.778,64.521 31.802,64.330 32.108 C 64.195 32.326,64.004 32.430,63.845 32.373 C 63.701 32.322,63.640 32.342,63.709 32.418 C 63.778 32.494,63.703 32.705,63.542 32.886 C 63.313 33.144,63.304 33.198,63.500 33.136 C 63.745 33.057,64.761 31.901,66.083 30.192 C 67.199 28.752,68.004 27.175,68.606 25.250 C 68.921 24.242,69.396 23.004,69.661 22.500 C 70.213 21.451,70.607 20.291,70.640 19.625 C 70.668 19.070,70.559 19.029,70.422 19.542 M32.940 19.616 C 32.752 19.803,32.826 20.000,33.083 20.000 C 33.221 20.000,33.333 19.929,33.333 19.843 C 33.333 19.633,33.073 19.482,32.940 19.616 M75.333 20.667 C 75.333 20.758,75.465 20.832,75.625 20.831 C 75.874 20.829,75.880 20.805,75.667 20.667 C 75.448 20.525,75.449 20.505,75.681 20.503 C 76.064 20.499,76.191 20.686,75.978 20.943 C 75.686 21.295,75.075 21.223,75.046 20.833 C 75.032 20.650,75.091 20.500,75.177 20.500 C 75.263 20.500,75.333 20.575,75.333 20.667 M25.597 24.441 C 25.438 24.854,25.613 24.911,25.826 24.514 C 25.928 24.323,25.942 24.167,25.857 24.167 C 25.772 24.167,25.655 24.290,25.597 24.441 M23.952 28.000 C 23.904 28.183,23.924 28.333,23.996 28.333 C 24.069 28.333,24.167 28.183,24.215 28.000 C 24.263 27.817,24.243 27.667,24.171 27.667 C 24.098 27.667,24.000 27.817,23.952 28.000 M23.133 29.987 C 23.092 30.269,23.111 30.500,23.176 30.500 C 23.363 30.500,23.505 29.771,23.349 29.615 C 23.271 29.538,23.174 29.706,23.133 29.987 M71.292 31.119 C 71.040 31.158,70.627 31.158,70.375 31.119 C 70.123 31.081,70.329 31.050,70.833 31.050 C 71.337 31.050,71.544 31.081,71.292 31.119 M60.026 31.512 C 59.822 31.702,59.564 31.827,59.452 31.789 C 59.341 31.752,59.475 31.600,59.750 31.451 C 60.416 31.090,60.467 31.101,60.026 31.512 M33.336 31.792 C 33.342 32.088,33.627 32.366,33.739 32.184 C 33.802 32.083,33.999 32.000,34.177 32.000 C 34.354 32.000,34.500 31.925,34.500 31.833 C 34.500 31.742,34.237 31.667,33.917 31.667 C 33.596 31.667,33.334 31.723,33.336 31.792 M70.667 32.580 C 70.667 32.624,70.967 32.813,71.333 33.000 C 72.145 33.414,72.208 33.323,71.439 32.847 C 70.880 32.501,70.667 32.428,70.667 32.580 M45.381 33.417 C 45.382 33.875,45.415 34.043,45.453 33.789 C 45.491 33.536,45.490 33.161,45.451 32.956 C 45.411 32.751,45.380 32.958,45.381 33.417 M22.283 33.066 C 22.215 33.239,22.198 33.420,22.246 33.468 C 22.398 33.620,22.532 33.371,22.468 33.055 C 22.410 32.765,22.401 32.765,22.283 33.066 M54.209 33.917 C 54.211 34.283,54.245 34.414,54.285 34.206 C 54.324 33.999,54.323 33.699,54.281 33.540 C 54.239 33.380,54.207 33.550,54.209 33.917 M62.958 33.513 C 62.631 33.704,62.562 34.167,62.861 34.167 C 62.968 34.167,63.005 34.117,62.944 34.055 C 62.883 33.994,62.957 33.806,63.109 33.639 C 63.419 33.295,63.384 33.266,62.958 33.513 M72.167 33.395 C 72.167 33.462,73.467 34.429,73.958 34.727 C 74.606 35.119,74.013 34.575,73.167 34.000 C 72.617 33.627,72.167 33.354,72.167 33.395 M77.417 34.000 C 77.775 34.367,78.105 34.667,78.151 34.667 C 78.197 34.667,77.941 34.367,77.583 34.000 C 77.225 33.633,76.895 33.333,76.849 33.333 C 76.803 33.333,77.059 33.633,77.417 34.000 M80.447 33.442 C 80.033 33.856,80.677 33.958,81.333 33.583 C 81.820 33.305,81.642 33.246,81.135 33.517 C 80.883 33.652,80.760 33.651,80.676 33.515 C 80.612 33.412,80.509 33.379,80.447 33.442 M67.190 34.691 C 66.882 34.780,66.661 34.884,66.699 34.922 C 66.738 34.960,67.063 34.910,67.423 34.810 C 67.782 34.711,68.491 34.672,68.997 34.723 C 69.592 34.784,69.799 34.765,69.583 34.670 C 69.145 34.477,67.894 34.489,67.190 34.691 M55.833 35.333 C 55.490 35.443,55.475 35.469,55.750 35.481 C 55.933 35.489,56.196 35.422,56.333 35.333 C 56.625 35.145,56.423 35.145,55.833 35.333 M105.003 35.958 C 105.001 36.165,105.075 36.333,105.167 36.333 C 105.375 36.333,105.375 36.156,105.167 35.833 C 105.036 35.631,105.005 35.655,105.003 35.958 M70.375 37.453 C 70.627 37.491,71.040 37.491,71.292 37.453 C 71.544 37.415,71.337 37.383,70.833 37.383 C 70.329 37.383,70.123 37.415,70.375 37.453 M21.276 37.895 C 21.207 38.158,21.190 38.412,21.238 38.460 C 21.372 38.594,21.536 38.058,21.465 37.718 C 21.418 37.496,21.368 37.542,21.276 37.895 M105.667 40.750 C 105.667 40.887,105.742 41.000,105.833 41.000 C 105.925 41.000,106.000 40.887,106.000 40.750 C 106.000 40.612,105.925 40.500,105.833 40.500 C 105.742 40.500,105.667 40.612,105.667 40.750 M105.896 44.167 C 105.896 45.221,105.923 45.652,105.956 45.125 C 105.990 44.598,105.990 43.735,105.956 43.208 C 105.923 42.681,105.896 43.112,105.896 44.167 M20.667 44.333 C 20.667 45.111,20.736 45.667,20.833 45.667 C 20.931 45.667,21.000 45.111,21.000 44.333 C 21.000 43.556,20.931 43.000,20.833 43.000 C 20.736 43.000,20.667 43.556,20.667 44.333 M105.667 47.657 C 105.667 47.835,105.742 48.027,105.833 48.083 C 105.928 48.142,106.000 48.002,106.000 47.760 C 106.000 47.525,105.925 47.333,105.833 47.333 C 105.742 47.333,105.667 47.479,105.667 47.657 M21.172 50.167 C 21.172 50.304,21.244 50.529,21.333 50.667 C 21.477 50.889,21.495 50.889,21.495 50.667 C 21.495 50.529,21.422 50.304,21.333 50.167 C 21.190 49.944,21.172 49.944,21.172 50.167 M105.111 52.278 C 105.050 52.339,105.005 52.545,105.011 52.736 C 105.020 53.055,105.034 53.051,105.181 52.684 C 105.344 52.276,105.310 52.079,105.111 52.278 M23.899 60.430 C 23.954 60.575,24.000 60.725,24.000 60.764 C 24.000 60.802,24.068 60.833,24.151 60.833 C 24.234 60.833,24.263 60.683,24.215 60.500 C 24.167 60.317,24.054 60.167,23.963 60.167 C 23.872 60.167,23.843 60.285,23.899 60.430 M102.449 60.899 C 102.381 61.072,102.365 61.254,102.413 61.302 C 102.565 61.454,102.699 61.205,102.635 60.888 C 102.576 60.598,102.568 60.599,102.449 60.899 M31.180 72.213 C 31.289 72.452,31.483 72.688,31.610 72.737 C 31.903 72.850,31.650 72.332,31.250 72.000 C 31.008 71.799,31.001 71.820,31.180 72.213 M94.836 72.865 L 94.443 73.396 94.974 73.019 C 95.265 72.811,95.461 72.572,95.409 72.487 C 95.276 72.272,95.274 72.273,94.836 72.865 M91.917 75.755 C 91.566 76.042,91.498 76.165,91.689 76.166 C 91.839 76.166,92.085 75.979,92.235 75.750 C 92.569 75.239,92.545 75.240,91.917 75.755 M44.500 82.463 C 44.500 82.535,44.744 82.683,45.042 82.792 L 45.583 82.989 45.190 82.661 C 44.781 82.320,44.500 82.240,44.500 82.463 M81.958 82.460 C 81.798 82.495,81.667 82.594,81.667 82.679 C 81.667 82.874,81.847 82.872,82.162 82.673 C 82.461 82.484,82.354 82.372,81.958 82.460 M46.167 83.316 C 46.167 83.552,46.644 83.671,46.770 83.467 C 46.840 83.355,46.809 83.329,46.692 83.401 C 46.587 83.466,46.500 83.440,46.500 83.343 C 46.500 83.246,46.425 83.167,46.333 83.167 C 46.242 83.167,46.167 83.234,46.167 83.316 M80.125 83.282 C 79.965 83.323,79.833 83.420,79.833 83.497 C 79.833 83.573,79.983 83.596,80.167 83.548 C 80.350 83.500,80.500 83.395,80.500 83.314 C 80.500 83.233,80.481 83.175,80.458 83.186 C 80.435 83.197,80.285 83.240,80.125 83.282 M71.667 86.000 C 71.667 86.209,71.844 86.209,72.167 86.000 C 72.369 85.869,72.345 85.838,72.042 85.836 C 71.835 85.834,71.667 85.908,71.667 86.000 M61.808 86.870 C 62.882 86.967,64.141 86.967,65.142 86.870 C 66.640 86.725,66.523 86.714,63.417 86.714 C 60.227 86.714,60.158 86.721,61.808 86.870 " stroke="none" fill="#74729b" fill-rule="evenodd"></path><path id="path4" d="M60.167 1.667 C 60.167 1.758,60.523 1.832,60.958 1.831 C 61.531 1.829,61.681 1.784,61.500 1.667 C 61.170 1.454,60.167 1.454,60.167 1.667 M65.167 1.667 C 64.991 1.780,65.240 1.828,66.000 1.828 C 66.760 1.828,67.009 1.780,66.833 1.667 C 66.696 1.578,66.321 1.505,66.000 1.505 C 65.679 1.505,65.304 1.578,65.167 1.667 M58.127 1.951 C 58.334 1.991,58.634 1.990,58.794 1.948 C 58.953 1.906,58.783 1.874,58.417 1.875 C 58.050 1.877,57.920 1.911,58.127 1.951 M70.967 2.367 C 71.122 2.522,71.211 2.522,71.367 2.367 C 71.522 2.211,71.478 2.167,71.167 2.167 C 70.856 2.167,70.811 2.211,70.967 2.367 M54.333 2.500 C 54.333 2.592,54.446 2.667,54.583 2.667 C 54.721 2.667,54.833 2.592,54.833 2.500 C 54.833 2.408,54.721 2.333,54.583 2.333 C 54.446 2.333,54.333 2.408,54.333 2.500 M47.171 4.660 C 46.775 4.911,47.045 4.964,47.500 4.724 C 47.730 4.603,47.804 4.505,47.667 4.505 C 47.529 4.505,47.306 4.575,47.171 4.660 M35.762 11.595 C 35.405 11.953,35.433 12.048,35.833 11.833 C 36.017 11.735,36.167 11.583,36.167 11.494 C 36.167 11.268,36.064 11.293,35.762 11.595 M33.361 13.846 C 32.088 15.105,31.891 15.333,32.072 15.333 C 32.153 15.333,34.077 13.431,34.567 12.866 C 35.244 12.086,34.661 12.560,33.361 13.846 M30.917 16.500 C 30.751 16.683,30.699 16.833,30.802 16.833 C 30.904 16.833,31.069 16.683,31.167 16.500 C 31.265 16.317,31.317 16.167,31.282 16.167 C 31.247 16.167,31.083 16.317,30.917 16.500 M96.438 17.412 C 96.486 17.538,96.629 17.680,96.754 17.729 C 96.899 17.784,96.951 17.732,96.895 17.588 C 96.847 17.462,96.705 17.320,96.579 17.271 C 96.435 17.216,96.383 17.268,96.438 17.412 M29.929 17.688 C 29.753 17.860,29.687 18.000,29.784 18.000 C 29.976 18.000,30.421 17.527,30.315 17.434 C 30.279 17.402,30.106 17.517,29.929 17.688 M98.167 19.802 C 98.167 19.891,98.285 20.010,98.431 20.066 C 98.593 20.128,98.669 20.091,98.629 19.969 C 98.545 19.720,98.167 19.583,98.167 19.802 M45.603 32.424 L 45.469 34.098 45.993 34.660 C 46.797 35.519,47.321 36.526,47.437 37.430 C 47.496 37.881,47.681 38.480,47.850 38.762 C 48.489 39.828,48.316 42.485,47.635 42.064 C 47.463 41.957,47.420 42.111,47.174 43.721 C 47.064 44.438,46.821 45.285,46.633 45.603 C 46.445 45.921,46.336 46.225,46.390 46.279 C 46.444 46.332,46.583 46.160,46.700 45.897 C 46.816 45.633,47.044 45.319,47.206 45.199 C 47.368 45.079,47.501 44.779,47.502 44.532 C 47.506 43.832,47.684 43.333,47.931 43.333 C 48.073 43.333,48.117 43.436,48.050 43.611 C 47.978 43.797,48.007 43.849,48.138 43.768 C 48.266 43.689,48.333 43.782,48.333 44.040 C 48.333 44.430,48.607 44.833,48.871 44.833 C 49.058 44.833,49.394 43.985,49.349 43.625 C 49.299 43.225,49.936 43.239,50.041 43.640 C 50.134 43.994,52.537 44.167,57.360 44.167 L 60.000 44.167 60.000 43.750 C 60.000 43.491,60.094 43.333,60.250 43.333 C 60.670 43.333,60.561 44.111,60.125 44.228 C 59.919 44.284,57.538 44.342,54.833 44.357 C 50.623 44.382,50.216 44.405,52.000 44.516 C 53.146 44.587,55.710 44.641,57.699 44.637 L 61.315 44.628 61.366 44.189 C 61.432 43.617,62.061 43.492,62.332 43.997 C 62.489 44.291,62.457 44.399,62.135 44.668 L 61.750 44.989 62.198 44.994 C 62.687 45.000,62.962 45.254,62.626 45.389 C 62.511 45.436,62.570 45.480,62.758 45.487 C 62.946 45.494,63.190 45.590,63.300 45.700 C 63.446 45.846,63.500 45.848,63.500 45.708 C 63.500 45.603,63.405 45.457,63.288 45.383 C 62.423 44.838,61.729 40.769,62.260 39.352 C 63.180 36.897,66.232 34.500,68.440 34.500 C 71.109 34.500,74.200 36.432,75.352 38.821 C 75.979 40.121,75.988 40.125,77.496 39.773 C 78.417 39.558,78.840 38.949,78.583 38.208 C 78.539 38.083,78.656 38.000,78.874 38.000 C 79.426 38.000,79.021 37.682,77.181 36.668 C 76.318 36.192,74.871 35.304,73.966 34.693 C 71.262 32.870,70.334 32.380,69.167 32.160 C 68.571 32.048,67.990 31.882,67.875 31.791 C 67.732 31.678,67.667 31.689,67.667 31.826 C 67.667 31.953,67.453 32.007,67.079 31.975 C 66.649 31.938,66.346 32.038,65.954 32.348 C 65.423 32.767,62.973 34.167,62.771 34.167 C 62.514 34.167,62.713 33.769,63.246 33.220 C 63.565 32.892,63.778 32.545,63.719 32.450 C 63.656 32.348,63.713 32.316,63.860 32.372 C 64.006 32.428,64.198 32.320,64.330 32.108 C 64.521 31.802,64.520 31.778,64.318 31.945 C 64.036 32.178,63.396 31.804,63.576 31.511 C 63.637 31.413,63.569 31.333,63.427 31.333 C 63.284 31.333,63.185 31.418,63.208 31.521 C 63.231 31.624,63.156 31.743,63.042 31.785 C 62.927 31.827,62.833 31.780,62.833 31.681 C 62.833 31.581,62.758 31.500,62.667 31.500 C 62.575 31.500,62.500 31.599,62.500 31.721 C 62.500 31.888,62.103 31.947,60.875 31.963 C 59.981 31.974,59.359 31.939,59.492 31.883 C 59.626 31.828,59.888 31.635,60.076 31.454 L 60.417 31.126 60.000 31.340 C 58.508 32.107,57.041 33.590,56.682 34.694 C 56.466 35.359,56.247 35.501,55.445 35.497 C 54.600 35.493,54.167 34.944,54.167 33.878 C 54.167 32.895,53.781 31.230,53.654 31.667 C 53.588 31.896,53.526 32.008,53.517 31.917 C 53.506 31.811,52.225 31.750,50.042 31.750 C 47.929 31.750,46.536 31.815,46.461 31.917 C 46.385 32.020,46.337 32.004,46.336 31.875 C 46.334 31.760,46.226 31.667,46.094 31.667 C 45.959 31.667,45.830 31.468,45.797 31.208 C 45.764 30.956,45.677 31.503,45.603 32.424 M87.333 31.012 C 87.333 31.110,87.153 31.167,86.933 31.138 C 86.710 31.109,86.377 31.226,86.183 31.402 C 85.991 31.576,85.833 31.661,85.833 31.590 C 85.833 31.519,85.648 31.583,85.423 31.731 C 85.197 31.879,84.780 32.000,84.496 32.000 C 84.212 32.000,84.018 32.062,84.065 32.137 C 84.112 32.212,83.994 32.407,83.803 32.570 C 83.546 32.791,83.425 32.815,83.333 32.666 C 83.253 32.536,83.171 32.525,83.104 32.633 C 82.974 32.844,80.880 33.833,80.565 33.833 C 80.274 33.833,80.264 33.560,80.547 33.383 C 80.937 33.141,82.030 31.504,81.944 31.292 C 81.880 31.134,81.856 31.133,81.846 31.286 C 81.839 31.398,81.731 31.450,81.605 31.402 C 81.297 31.284,80.790 31.814,80.911 32.128 C 80.993 32.342,80.967 32.347,80.740 32.158 C 80.451 31.918,80.479 31.923,78.226 31.744 C 76.766 31.629,76.698 31.638,76.590 31.978 C 76.528 32.174,76.408 32.333,76.322 32.333 C 76.093 32.333,76.133 32.041,76.375 31.944 C 76.497 31.894,76.461 31.854,76.286 31.846 C 76.123 31.839,75.921 32.002,75.839 32.208 C 75.687 32.585,75.632 32.521,75.600 31.933 C 75.583 31.608,73.833 31.336,73.833 31.658 C 73.833 31.842,74.696 31.999,75.184 31.904 C 75.498 31.843,75.518 31.856,75.275 31.963 C 75.017 32.077,75.141 32.212,76.056 32.803 C 77.232 33.564,78.256 34.619,79.037 35.875 C 79.583 36.755,79.780 36.847,79.924 36.292 C 79.978 36.085,80.462 35.579,81.001 35.167 C 81.539 34.754,81.984 34.360,81.990 34.292 C 81.995 34.223,82.078 34.167,82.174 34.167 C 82.372 34.167,82.702 33.914,83.208 33.375 C 83.402 33.169,83.650 33.000,83.760 33.000 C 83.869 33.000,84.053 32.887,84.167 32.750 C 84.281 32.612,84.515 32.500,84.687 32.500 C 84.859 32.500,85.000 32.425,85.000 32.333 C 85.000 32.242,85.079 32.167,85.176 32.167 C 85.273 32.167,85.704 32.001,86.134 31.797 C 86.565 31.594,87.404 31.303,88.000 31.150 L 89.083 30.872 88.208 30.852 C 87.685 30.841,87.333 30.905,87.333 31.012 M90.333 30.983 C 90.471 31.059,90.990 31.167,91.487 31.223 C 91.984 31.279,92.468 31.401,92.562 31.496 C 92.656 31.590,92.869 31.667,93.036 31.667 C 93.551 31.667,95.107 32.700,95.750 33.468 C 96.439 34.291,97.624 35.500,97.743 35.500 C 97.873 35.500,98.880 35.079,99.373 34.819 C 99.831 34.578,101.566 34.642,102.245 34.925 L 102.864 35.184 102.746 34.634 C 102.614 34.014,101.658 31.129,101.542 31.000 C 101.501 30.954,101.493 31.104,101.525 31.333 C 101.592 31.811,100.745 32.058,100.479 31.638 C 100.373 31.472,100.338 31.469,100.336 31.625 C 100.334 31.777,99.852 31.839,98.542 31.853 C 96.535 31.875,95.730 32.006,95.792 32.301 C 95.815 32.410,95.683 32.500,95.500 32.500 C 95.315 32.500,95.167 32.389,95.167 32.250 C 95.167 32.112,95.235 32.000,95.318 32.000 C 95.401 32.000,95.429 31.846,95.380 31.659 C 95.330 31.471,95.183 31.340,95.053 31.367 C 94.922 31.394,94.838 31.492,94.866 31.583 C 94.894 31.675,94.973 31.731,95.042 31.708 C 95.110 31.685,95.167 31.742,95.167 31.833 C 95.167 32.136,94.943 32.075,93.724 31.440 C 93.435 31.290,92.887 31.167,92.506 31.167 C 92.087 31.167,91.854 31.101,91.917 31.000 C 91.981 30.896,91.656 30.835,91.052 30.838 C 90.443 30.842,90.176 30.895,90.333 30.983 M34.067 31.232 C 34.016 31.365,33.842 31.428,33.656 31.379 C 33.478 31.332,33.333 31.378,33.333 31.481 C 33.333 31.583,33.071 31.667,32.750 31.667 C 32.429 31.667,32.167 31.729,32.167 31.806 C 32.167 32.057,30.866 32.009,30.606 31.748 C 30.321 31.464,30.000 31.421,30.000 31.667 C 30.000 31.876,27.009 31.887,26.681 31.679 C 26.548 31.595,26.282 31.591,26.076 31.670 C 25.825 31.765,25.593 31.730,25.349 31.559 C 25.153 31.421,25.006 31.370,25.022 31.446 C 25.039 31.522,25.008 31.696,24.953 31.833 C 24.898 31.971,24.633 32.871,24.364 33.833 C 23.535 36.800,23.513 37.119,24.196 36.250 C 24.377 36.021,24.625 35.833,24.748 35.833 C 24.871 35.833,24.997 35.770,25.028 35.692 C 25.336 34.907,30.002 34.163,30.417 34.833 C 30.594 35.121,30.971 35.017,31.468 34.542 C 32.366 33.684,32.835 33.333,33.085 33.333 C 33.221 33.333,33.333 33.230,33.333 33.103 C 33.333 32.976,33.780 32.657,34.327 32.394 C 35.458 31.850,35.488 31.806,34.917 31.500 C 34.688 31.377,34.500 31.215,34.500 31.139 C 34.500 30.910,34.163 30.982,34.067 31.232 M70.375 31.119 C 70.627 31.158,71.040 31.158,71.292 31.119 C 71.544 31.081,71.337 31.050,70.833 31.050 C 70.329 31.050,70.123 31.081,70.375 31.119 M35.778 31.278 C 35.566 31.489,35.668 31.667,36.000 31.667 C 36.183 31.667,36.333 31.595,36.333 31.507 C 36.333 31.419,36.952 31.322,37.708 31.291 L 39.083 31.235 37.486 31.201 C 36.608 31.182,35.839 31.217,35.778 31.278 M40.250 31.278 C 40.433 31.318,40.752 31.434,40.958 31.537 C 41.360 31.736,41.603 31.635,41.424 31.344 C 41.363 31.247,40.999 31.175,40.615 31.186 C 40.231 31.197,40.067 31.238,40.250 31.278 M42.606 31.496 C 42.103 31.818,42.346 32.167,43.072 32.167 C 43.216 32.167,43.333 32.242,43.333 32.333 C 43.333 32.425,43.446 32.500,43.583 32.500 C 43.721 32.500,43.833 32.387,43.833 32.250 C 43.833 32.083,43.667 32.000,43.333 32.000 C 43.058 32.000,42.833 31.925,42.833 31.833 C 42.833 31.742,42.981 31.667,43.161 31.667 C 43.385 31.667,43.459 31.587,43.394 31.417 C 43.275 31.107,43.203 31.115,42.606 31.496 M34.500 31.833 C 34.500 31.925,34.354 32.000,34.177 32.000 C 33.999 32.000,33.802 32.083,33.739 32.184 C 33.660 32.313,33.582 32.300,33.482 32.143 C 33.235 31.754,33.315 31.667,33.917 31.667 C 34.237 31.667,34.500 31.742,34.500 31.833 M104.833 34.750 C 104.833 34.887,104.908 35.000,105.000 35.000 C 105.092 35.000,105.167 34.887,105.167 34.750 C 105.167 34.612,105.092 34.500,105.000 34.500 C 104.908 34.500,104.833 34.612,104.833 34.750 M68.562 37.909 C 67.431 38.345,65.780 39.413,64.804 40.342 C 63.458 41.623,64.052 42.088,67.917 42.783 C 71.072 43.349,72.230 43.388,73.579 42.971 C 74.223 42.773,74.780 42.587,74.816 42.559 C 74.947 42.456,74.266 40.570,73.763 39.642 C 72.637 37.569,70.926 36.999,68.562 37.909 M70.833 39.637 C 70.833 41.164,71.729 42.824,72.412 42.562 C 72.654 42.469,73.333 41.019,73.333 40.594 C 73.333 39.810,74.107 40.926,74.210 41.859 C 74.279 42.480,72.546 43.061,71.250 42.853 C 70.700 42.765,70.100 42.694,69.917 42.696 C 69.000 42.708,65.500 41.883,65.500 41.656 C 65.500 41.242,67.988 39.572,69.242 39.144 C 70.680 38.653,70.833 38.701,70.833 39.637 M105.667 39.990 C 105.667 40.271,105.742 40.500,105.833 40.500 C 105.925 40.500,106.000 40.317,106.000 40.093 C 106.000 39.869,105.925 39.640,105.833 39.583 C 105.736 39.523,105.667 39.693,105.667 39.990 M91.500 40.949 C 91.500 41.081,92.923 42.500,93.055 42.500 C 93.136 42.500,93.350 42.688,93.530 42.917 C 93.710 43.146,93.997 43.333,94.167 43.333 C 94.568 43.333,95.037 43.804,94.886 44.055 C 94.822 44.162,94.896 44.147,95.051 44.021 C 95.235 43.872,95.333 43.858,95.333 43.980 C 95.333 44.082,95.438 44.167,95.566 44.167 C 95.693 44.167,95.841 44.279,95.894 44.417 C 95.946 44.554,96.112 44.667,96.263 44.667 C 96.441 44.667,96.501 44.756,96.436 44.925 C 96.379 45.074,96.407 45.141,96.502 45.082 C 96.593 45.026,96.667 44.877,96.667 44.750 C 96.667 44.623,96.805 44.421,96.974 44.301 C 97.142 44.181,97.372 43.910,97.484 43.699 C 97.597 43.488,97.848 43.256,98.043 43.184 C 98.304 43.087,98.117 43.024,97.323 42.942 C 96.089 42.814,94.992 42.540,95.033 42.368 C 95.048 42.303,94.962 41.939,94.842 41.559 L 94.624 40.868 93.062 40.881 C 92.203 40.889,91.500 40.919,91.500 40.949 M20.778 41.111 C 20.600 41.289,20.650 43.000,20.833 43.000 C 20.926 43.000,21.000 42.556,21.000 42.000 C 21.000 40.991,20.980 40.909,20.778 41.111 M32.837 42.196 C 32.530 42.311,32.481 42.386,32.647 42.488 C 32.802 42.584,32.813 42.659,32.684 42.739 C 32.583 42.802,32.500 42.774,32.500 42.677 C 32.500 42.419,31.636 42.471,31.267 42.750 C 31.093 42.882,30.887 42.950,30.809 42.901 C 30.731 42.853,30.667 42.931,30.667 43.073 C 30.667 43.216,30.779 43.333,30.917 43.333 C 31.054 43.333,31.167 43.437,31.167 43.563 C 31.167 44.287,31.665 44.200,32.505 43.328 C 33.411 42.388,33.546 41.930,32.837 42.196 M106.065 44.250 C 106.065 45.442,106.092 45.907,106.124 45.285 C 106.156 44.662,106.156 43.687,106.123 43.118 C 106.091 42.549,106.064 43.058,106.065 44.250 M46.292 42.448 C 46.131 42.490,46.000 42.622,46.000 42.742 C 46.000 42.861,45.883 43.057,45.739 43.176 C 45.577 43.310,45.514 43.534,45.573 43.769 C 45.648 44.068,45.601 44.141,45.345 44.122 C 45.168 44.108,45.057 44.043,45.098 43.977 C 45.139 43.911,45.096 43.809,45.003 43.752 C 44.713 43.572,44.817 43.333,45.184 43.333 C 45.436 43.333,45.507 43.259,45.434 43.070 C 45.379 42.925,45.333 42.775,45.333 42.736 C 45.333 42.698,45.202 42.669,45.042 42.672 C 44.646 42.679,44.167 43.063,44.167 43.374 C 44.167 43.514,43.979 43.664,43.750 43.707 C 43.471 43.761,43.333 43.712,43.333 43.560 C 43.333 43.435,43.446 43.333,43.583 43.333 C 43.721 43.333,43.833 43.265,43.833 43.182 C 43.833 43.098,42.325 43.001,40.458 42.964 C 36.815 42.893,36.500 42.964,36.500 43.852 C 36.500 44.025,36.425 44.167,36.333 44.167 C 36.242 44.167,36.167 44.279,36.167 44.417 C 36.167 44.554,36.260 44.668,36.375 44.669 C 36.514 44.671,36.500 44.726,36.333 44.833 C 36.183 44.930,36.163 44.996,36.282 44.997 C 36.391 44.999,36.527 44.925,36.583 44.833 C 36.812 44.464,43.333 44.625,43.333 45.000 C 43.333 45.183,43.403 45.333,43.489 45.333 C 43.574 45.333,43.692 45.183,43.750 45.000 C 43.808 44.817,43.926 44.667,44.011 44.667 C 44.097 44.667,44.167 44.479,44.167 44.250 C 44.167 43.673,44.580 43.721,44.831 44.327 C 45.004 44.744,44.994 44.863,44.768 45.089 C 44.621 45.237,44.504 45.408,44.508 45.470 C 44.529 45.744,45.906 43.942,46.260 43.178 C 46.475 42.713,46.636 42.342,46.617 42.353 C 46.599 42.363,46.452 42.406,46.292 42.448 M61.868 42.991 C 61.907 43.261,61.878 43.444,61.803 43.398 C 61.670 43.315,61.604 42.500,61.731 42.500 C 61.767 42.500,61.828 42.721,61.868 42.991 M103.689 44.417 C 103.700 45.616,103.750 46.077,103.833 45.750 C 104.020 45.015,104.020 43.123,103.833 42.833 C 103.724 42.664,103.677 43.178,103.689 44.417 M86.500 43.518 C 86.500 43.787,86.568 43.841,86.792 43.749 C 87.183 43.588,87.830 43.460,87.503 43.608 C 86.867 43.897,86.766 44.174,87.160 44.554 C 87.531 44.913,87.534 44.913,87.432 44.569 C 87.332 44.233,87.376 44.223,88.706 44.278 C 89.463 44.309,89.958 44.278,89.805 44.209 C 89.653 44.140,89.366 43.877,89.168 43.625 C 88.677 42.998,86.500 42.910,86.500 43.518 M88.333 43.583 C 88.333 43.721,88.333 43.871,88.333 43.917 C 88.333 44.146,88.084 43.982,87.972 43.679 C 87.879 43.428,87.911 43.333,88.089 43.333 C 88.223 43.333,88.333 43.446,88.333 43.583 M25.500 43.833 C 25.637 43.922,25.938 43.991,26.167 43.986 C 26.548 43.977,26.555 43.965,26.250 43.833 C 25.757 43.621,25.172 43.621,25.500 43.833 M24.250 44.167 L 25.083 44.281 24.292 44.307 C 23.856 44.322,23.500 44.408,23.500 44.500 C 23.500 44.737,24.607 44.707,25.007 44.458 C 25.268 44.297,25.371 44.295,25.469 44.451 C 25.569 44.613,26.250 44.637,26.667 44.494 C 26.896 44.416,24.660 44.017,24.083 44.033 C 23.436 44.052,23.441 44.056,24.250 44.167 M41.708 44.291 C 40.769 44.321,39.231 44.321,38.292 44.291 C 37.352 44.261,38.121 44.237,40.000 44.237 C 41.879 44.237,42.648 44.261,41.708 44.291 M87.755 44.992 C 87.647 45.166,88.306 45.583,88.455 45.434 C 88.565 45.324,88.185 44.833,87.989 44.833 C 87.914 44.833,87.809 44.905,87.755 44.992 M23.050 45.833 C 23.050 46.337,23.081 46.544,23.119 46.292 C 23.158 46.040,23.158 45.627,23.119 45.375 C 23.081 45.123,23.050 45.329,23.050 45.833 M61.417 45.766 L 60.917 45.985 61.365 45.992 C 61.612 45.997,61.863 45.920,61.924 45.822 C 62.095 45.544,61.958 45.529,61.417 45.766 M20.694 46.542 C 20.677 47.023,20.738 47.529,20.829 47.667 C 20.947 47.845,20.996 47.594,20.997 46.792 C 21.000 45.474,20.738 45.257,20.694 46.542 M88.614 45.775 C 88.485 45.904,89.262 46.333,89.625 46.333 C 89.795 46.333,89.739 46.224,89.455 46.000 C 89.011 45.651,88.795 45.594,88.614 45.775 M43.833 46.083 C 43.833 46.221,43.900 46.333,43.982 46.333 C 44.064 46.333,44.174 46.221,44.227 46.083 C 44.285 45.931,44.227 45.833,44.078 45.833 C 43.943 45.833,43.833 45.946,43.833 46.083 M60.000 46.333 C 60.000 46.425,60.108 46.500,60.240 46.500 C 60.372 46.500,60.527 46.425,60.583 46.333 C 60.640 46.242,60.532 46.167,60.343 46.167 C 60.154 46.167,60.000 46.242,60.000 46.333 M90.083 46.667 C 90.025 46.761,90.165 46.833,90.407 46.833 C 90.641 46.833,90.833 46.758,90.833 46.667 C 90.833 46.575,90.688 46.500,90.510 46.500 C 90.332 46.500,90.140 46.575,90.083 46.667 M91.302 47.250 C 91.264 47.571,91.294 47.833,91.367 47.833 C 91.440 47.833,91.500 47.571,91.500 47.250 C 91.500 46.929,91.471 46.667,91.435 46.667 C 91.399 46.667,91.339 46.929,91.302 47.250 M105.667 48.583 C 105.667 48.943,105.734 49.145,105.833 49.083 C 105.925 49.027,106.000 48.802,106.000 48.583 C 106.000 48.365,105.925 48.140,105.833 48.083 C 105.734 48.022,105.667 48.224,105.667 48.583 M21.333 52.000 C 21.333 52.311,21.378 52.356,21.533 52.200 C 21.689 52.044,21.689 51.956,21.533 51.800 C 21.378 51.644,21.333 51.689,21.333 52.000 M104.833 53.750 C 104.833 53.887,104.908 54.000,105.000 54.000 C 105.092 54.000,105.167 53.887,105.167 53.750 C 105.167 53.612,105.092 53.500,105.000 53.500 C 104.908 53.500,104.833 53.612,104.833 53.750 M104.000 56.917 C 104.000 57.054,104.075 57.167,104.167 57.167 C 104.258 57.167,104.333 57.054,104.333 56.917 C 104.333 56.779,104.258 56.667,104.167 56.667 C 104.075 56.667,104.000 56.779,104.000 56.917 M64.708 57.448 C 64.869 57.490,65.131 57.490,65.292 57.448 C 65.452 57.406,65.321 57.372,65.000 57.372 C 64.679 57.372,64.548 57.406,64.708 57.448 M97.444 69.778 C 97.285 69.937,97.307 70.167,97.482 70.167 C 97.564 70.167,97.674 70.054,97.727 69.917 C 97.824 69.663,97.647 69.575,97.444 69.778 M29.768 70.736 C 29.823 70.881,29.942 71.000,30.032 71.000 C 30.251 71.000,30.114 70.621,29.864 70.538 C 29.743 70.498,29.705 70.574,29.768 70.736 M30.500 71.627 C 30.500 71.696,30.654 71.850,30.843 71.968 C 31.160 72.166,31.173 72.156,31.004 71.841 C 30.827 71.510,30.500 71.371,30.500 71.627 M32.000 73.274 C 32.000 73.380,33.062 74.441,33.542 74.814 C 34.143 75.282,33.801 74.852,32.917 74.029 C 32.412 73.560,32.000 73.220,32.000 73.274 M91.380 76.375 C 91.096 76.742,90.965 77.096,91.238 76.760 C 91.382 76.582,91.594 76.377,91.708 76.304 C 91.845 76.218,91.852 76.171,91.729 76.169 C 91.625 76.168,91.468 76.260,91.380 76.375 M35.445 76.596 C 35.497 76.732,35.686 76.921,35.866 77.017 C 36.156 77.173,36.173 77.156,36.017 76.866 C 35.803 76.466,35.305 76.231,35.445 76.596 M53.500 85.833 C 53.500 85.925,53.612 86.000,53.750 86.000 C 53.887 86.000,54.000 85.925,54.000 85.833 C 54.000 85.742,53.887 85.667,53.750 85.667 C 53.612 85.667,53.500 85.742,53.500 85.833 M72.833 85.833 C 72.833 85.925,72.941 86.000,73.073 86.000 C 73.206 86.000,73.360 85.925,73.417 85.833 C 73.473 85.742,73.365 85.667,73.177 85.667 C 72.988 85.667,72.833 85.742,72.833 85.833 M58.250 86.667 C 58.307 86.758,58.499 86.833,58.677 86.833 C 58.854 86.833,59.000 86.758,59.000 86.667 C 59.000 86.575,58.808 86.500,58.573 86.500 C 58.332 86.500,58.192 86.572,58.250 86.667 M67.833 86.667 C 67.833 86.758,68.016 86.833,68.240 86.833 C 68.464 86.833,68.693 86.758,68.750 86.667 C 68.810 86.569,68.641 86.500,68.343 86.500 C 68.063 86.500,67.833 86.575,67.833 86.667 M60.455 86.954 C 60.750 86.990,61.275 86.991,61.621 86.955 C 61.967 86.919,61.725 86.889,61.083 86.888 C 60.442 86.887,60.159 86.917,60.455 86.954 M65.295 86.954 C 65.594 86.991,66.044 86.990,66.295 86.952 C 66.545 86.914,66.300 86.884,65.750 86.885 C 65.200 86.886,64.995 86.917,65.295 86.954 " stroke="none" fill="#987f8e" fill-rule="evenodd"></path></g></svg>